<svg xmlns="http://www.w3.org/2000/svg" xmlns:xlink="http://www.w3.org/1999/xlink" width="500" zoomAndPan="magnify" viewBox="0 0 375 374.999991" height="500" preserveAspectRatio="xMidYMid meet" version="1.0"><defs><filter x="0%" y="0%" width="100%" height="100%" id="be50c10231"><feColorMatrix values="0 0 0 0 1 0 0 0 0 1 0 0 0 0 1 0 0 0 1 0" color-interpolation-filters="sRGB"/></filter><g/><mask id="8d3e687e6a"><g filter="url(#be50c10231)"><rect x="-37.5" width="450" fill="#000000" y="-37.499999" height="449.999989" fill-opacity="0.31"/></g></mask><clipPath id="dd786c9e11"><path d="M 0 0.941406 L 243 0.941406 L 243 132.941406 L 0 132.941406 Z M 0 0.941406 " clip-rule="nonzero"/></clipPath><clipPath id="bfb39094b1"><rect x="0" width="244" y="0" height="134"/></clipPath><clipPath id="eef81b4a1a"><path d="M 112.5 108.433594 L 262.5 108.433594 L 262.5 223 L 112.5 223 Z M 112.5 108.433594 " clip-rule="nonzero"/></clipPath><clipPath id="99f19b795b"><path d="M 171.785156 171.03125 L 155.105469 171.03125 C 154.449219 171.03125 153.917969 171.5625 153.917969 172.21875 L 153.917969 177.265625 C 153.917969 177.921875 154.449219 178.453125 155.105469 178.453125 L 171.785156 178.453125 C 172.445312 178.453125 172.976562 177.921875 172.976562 177.265625 L 172.976562 172.21875 C 172.976562 171.5625 172.445312 171.03125 171.785156 171.03125 Z M 170.597656 176.078125 L 156.292969 176.078125 L 156.292969 173.40625 L 170.597656 173.40625 Z M 171.785156 180.597656 L 155.105469 180.597656 C 154.449219 180.597656 153.917969 181.132812 153.917969 181.789062 L 153.917969 186.835938 C 153.917969 187.492188 154.449219 188.023438 155.105469 188.023438 L 171.785156 188.023438 C 172.445312 188.023438 172.976562 187.492188 172.976562 186.835938 L 172.976562 181.789062 C 172.976562 181.132812 172.445312 180.597656 171.785156 180.597656 Z M 170.597656 185.648438 L 156.292969 185.648438 L 156.292969 182.976562 L 170.597656 182.976562 Z M 192.339844 177.761719 C 195.453125 177.761719 197.984375 175.226562 197.984375 172.117188 C 197.984375 169.003906 195.453125 166.472656 192.339844 166.472656 C 189.230469 166.472656 186.699219 169.003906 186.699219 172.117188 C 186.699219 175.226562 189.230469 177.761719 192.339844 177.761719 Z M 192.339844 168.847656 C 194.144531 168.847656 195.609375 170.316406 195.609375 172.117188 C 195.609375 173.917969 194.144531 175.382812 192.339844 175.382812 C 190.539062 175.382812 189.074219 173.917969 189.074219 172.117188 C 189.074219 170.316406 190.539062 168.847656 192.339844 168.847656 Z M 188.875 181.550781 C 188.875 178.4375 186.34375 175.90625 183.234375 175.90625 C 180.121094 175.90625 177.589844 178.4375 177.589844 181.550781 C 177.589844 184.660156 180.121094 187.191406 183.234375 187.191406 C 186.34375 187.191406 188.875 184.660156 188.875 181.550781 Z M 183.234375 184.816406 C 181.429688 184.816406 179.964844 183.351562 179.964844 181.550781 C 179.964844 179.75 181.429688 178.28125 183.234375 178.28125 C 185.035156 178.28125 186.5 179.75 186.5 181.550781 C 186.5 183.351562 185.035156 184.816406 183.234375 184.816406 Z M 192.066406 185.613281 C 188.957031 185.613281 186.421875 188.144531 186.421875 191.257812 C 186.421875 194.367188 188.957031 196.898438 192.066406 196.898438 C 195.179688 196.898438 197.710938 194.367188 197.710938 191.257812 C 197.710938 188.144531 195.179688 185.613281 192.066406 185.613281 Z M 192.066406 194.523438 C 190.265625 194.523438 188.800781 193.058594 188.800781 191.257812 C 188.800781 189.457031 190.265625 187.988281 192.066406 187.988281 C 193.871094 187.988281 195.335938 189.457031 195.335938 191.257812 C 195.335938 193.058594 193.867188 194.523438 192.066406 194.523438 Z M 201.777344 176.179688 C 198.664062 176.179688 196.132812 178.710938 196.132812 181.824219 C 196.132812 184.933594 198.664062 187.464844 201.777344 187.464844 C 204.886719 187.464844 207.417969 184.933594 207.417969 181.824219 C 207.417969 178.710938 204.886719 176.179688 201.777344 176.179688 Z M 201.777344 185.089844 C 199.972656 185.089844 198.507812 183.625 198.507812 181.824219 C 198.507812 180.023438 199.972656 178.558594 201.777344 178.558594 C 203.578125 178.558594 205.042969 180.023438 205.042969 181.824219 C 205.042969 183.625 203.578125 185.089844 201.777344 185.089844 Z M 133.816406 178.730469 C 134.046875 178.953125 134.339844 179.0625 134.636719 179.0625 C 134.929688 179.0625 135.226562 178.953125 135.457031 178.730469 L 138.59375 175.734375 C 138.828125 175.507812 138.960938 175.199219 138.960938 174.875 L 138.960938 167.550781 C 138.960938 166.894531 138.429688 166.363281 137.773438 166.363281 L 131.496094 166.363281 C 130.839844 166.363281 130.308594 166.894531 130.308594 167.550781 L 130.308594 174.875 C 130.308594 175.199219 130.4375 175.507812 130.675781 175.734375 Z M 132.683594 168.738281 L 136.585938 168.738281 L 136.585938 174.367188 L 134.632812 176.230469 L 132.683594 174.367188 Z M 132.898438 180.867188 L 129.902344 177.730469 C 129.679688 177.496094 129.367188 177.363281 129.042969 177.363281 L 121.71875 177.363281 C 121.0625 177.363281 120.53125 177.894531 120.53125 178.550781 L 120.53125 184.828125 C 120.53125 185.484375 121.0625 186.015625 121.71875 186.015625 L 129.042969 186.015625 C 129.367188 186.015625 129.675781 185.882812 129.902344 185.648438 L 132.898438 182.511719 C 133.339844 182.050781 133.339844 181.328125 132.898438 180.867188 Z M 128.535156 183.640625 L 122.90625 183.640625 L 122.90625 179.738281 L 128.535156 179.738281 L 130.398438 181.691406 Z M 135.484375 184.617188 C 135.027344 184.179688 134.304688 184.179688 133.84375 184.617188 L 130.707031 187.617188 C 130.472656 187.839844 130.339844 188.152344 130.339844 188.476562 L 130.339844 195.800781 C 130.339844 196.457031 130.871094 196.988281 131.527344 196.988281 L 137.804688 196.988281 C 138.460938 196.988281 138.992188 196.457031 138.992188 195.800781 L 138.992188 188.476562 C 138.992188 188.152344 138.859375 187.839844 138.625 187.617188 Z M 136.617188 194.609375 L 132.714844 194.609375 L 132.714844 188.984375 L 134.667969 187.121094 L 136.617188 188.984375 Z M 147.582031 177.332031 L 140.257812 177.332031 C 139.933594 177.332031 139.625 177.464844 139.398438 177.699219 L 136.402344 180.839844 C 135.960938 181.296875 135.960938 182.019531 136.402344 182.480469 L 139.398438 185.617188 C 139.621094 185.851562 139.933594 185.984375 140.257812 185.984375 L 147.582031 185.984375 C 148.238281 185.984375 148.769531 185.453125 148.769531 184.796875 L 148.769531 178.519531 C 148.769531 177.863281 148.238281 177.332031 147.582031 177.332031 Z M 146.394531 183.609375 L 140.765625 183.609375 L 138.902344 181.660156 L 140.765625 179.707031 L 146.394531 179.707031 Z M 249.769531 137.714844 L 249.769531 134.992188 C 249.769531 133.070312 248.414062 131.464844 246.613281 131.0625 L 246.613281 109.625 C 246.613281 108.96875 246.082031 108.433594 245.425781 108.433594 L 134.636719 108.433594 C 133.976562 108.433594 133.449219 108.96875 133.449219 109.625 L 133.449219 118.808594 C 130.949219 120.460938 122.09375 127.222656 125.757812 137.84375 C 129.304688 148.128906 139.601562 148.324219 146.417969 148.453125 C 148.445312 148.492188 150.199219 148.527344 151.425781 148.789062 C 155.113281 149.585938 158.46875 151.972656 160.511719 153.703125 C 150.402344 154.175781 143.230469 156.933594 141.003906 157.90625 C 140.894531 157.820312 140.761719 157.722656 140.621094 157.625 L 140.621094 155.585938 C 140.621094 153.363281 138.8125 151.554688 136.589844 151.554688 L 129.265625 151.554688 C 127.042969 151.554688 125.230469 153.363281 125.230469 155.585938 L 125.230469 158.308594 C 120.976562 162.066406 118.402344 169.523438 115.824219 180.179688 C 113.566406 189.503906 112.871094 204.523438 112.65625 212.644531 C 112.542969 216.953125 115.191406 220.820312 119.25 222.265625 C 120.34375 222.652344 121.472656 222.839844 122.582031 222.839844 C 125.820312 222.839844 128.9375 221.253906 130.820312 218.445312 L 138.871094 206.445312 C 140.480469 204.042969 143.167969 202.613281 146.058594 202.613281 L 180.835938 202.613281 C 183.726562 202.613281 186.414062 204.042969 188.023438 206.445312 L 196.074219 218.445312 C 198.605469 222.21875 203.367188 223.789062 207.640625 222.265625 C 211.699219 220.820312 214.351562 216.953125 214.238281 212.644531 C 214.035156 205.039062 213.414062 191.382812 211.476562 182.015625 L 228.941406 182.015625 C 231.832031 182.015625 234.519531 183.449219 236.132812 185.847656 L 244.179688 197.847656 C 246.0625 200.65625 249.183594 202.246094 252.417969 202.246094 C 253.53125 202.246094 254.65625 202.058594 255.75 201.667969 C 259.808594 200.226562 262.457031 196.359375 262.34375 192.046875 C 262.128906 183.925781 261.433594 168.90625 259.175781 159.582031 C 256.597656 148.925781 254.023438 141.472656 249.769531 137.714844 Z M 247.394531 134.992188 L 247.394531 136.101562 C 246.648438 135.726562 245.859375 135.429688 245.015625 135.234375 C 241.511719 134.417969 238.726562 134.953125 236.753906 135.75 L 236.753906 134.992188 C 236.753906 134.078125 237.5 133.335938 238.414062 133.335938 L 245.734375 133.335938 C 246.648438 133.335938 247.394531 134.078125 247.394531 134.992188 Z M 244.238281 110.8125 L 244.238281 130.957031 L 238.414062 130.957031 C 236.1875 130.957031 234.378906 132.765625 234.378906 134.992188 L 234.378906 137.027344 C 234.238281 137.128906 234.109375 137.222656 233.996094 137.308594 C 231.558594 136.246094 223.210938 133.03125 211.554688 133.03125 C 199.894531 133.03125 191.550781 136.246094 189.109375 137.308594 C 189 137.222656 188.867188 137.128906 188.726562 137.027344 L 188.726562 134.992188 C 188.726562 132.765625 186.917969 130.957031 184.695312 130.957031 L 177.371094 130.957031 C 175.148438 130.957031 173.335938 132.765625 173.335938 134.992188 L 173.335938 137.761719 C 172.625 138.398438 171.972656 139.132812 171.359375 139.941406 L 135.824219 139.941406 L 135.824219 119.578125 C 135.835938 119.464844 135.84375 119.355469 135.824219 119.242188 L 135.824219 110.8125 Z M 186.351562 135.75 C 184.378906 134.953125 181.59375 134.417969 178.089844 135.234375 C 177.246094 135.429688 176.457031 135.730469 175.714844 136.113281 L 175.714844 134.992188 C 175.714844 134.078125 176.457031 133.335938 177.371094 133.335938 L 184.695312 133.335938 C 185.609375 133.335938 186.355469 134.078125 186.355469 134.992188 L 186.355469 135.75 Z M 146.460938 146.078125 C 139.578125 145.945312 131.007812 145.785156 128.003906 137.066406 C 125.316406 129.28125 130.515625 123.96875 133.449219 121.703125 L 133.449219 141.132812 C 133.449219 141.789062 133.976562 142.320312 134.636719 142.320312 L 169.808594 142.320312 C 167.980469 145.546875 166.632812 149.53125 165.46875 153.664062 C 164.972656 153.648438 164.46875 153.640625 163.957031 153.636719 C 162.625 152.289062 157.757812 147.726562 151.925781 146.46875 C 150.472656 146.152344 148.613281 146.117188 146.460938 146.078125 Z M 127.605469 155.585938 C 127.605469 154.671875 128.351562 153.929688 129.265625 153.929688 L 136.589844 153.929688 C 137.503906 153.929688 138.246094 154.671875 138.246094 155.585938 L 138.246094 156.34375 C 136.273438 155.546875 133.488281 155.011719 129.984375 155.828125 C 129.140625 156.023438 128.355469 156.324219 127.609375 156.695312 L 127.609375 155.585938 Z M 206.84375 220.027344 C 203.589844 221.183594 199.972656 219.992188 198.046875 217.121094 L 189.996094 205.121094 C 187.945312 202.0625 184.519531 200.234375 180.835938 200.234375 L 146.058594 200.234375 C 142.375 200.234375 138.949219 202.0625 136.894531 205.121094 L 128.847656 217.121094 C 126.921875 219.992188 123.300781 221.183594 120.046875 220.027344 C 116.960938 218.929688 114.945312 215.988281 115.03125 212.707031 C 115.246094 204.679688 115.929688 189.851562 118.132812 180.738281 C 121.253906 167.84375 124.414062 159.566406 130.519531 158.144531 C 131.570312 157.898438 132.535156 157.796875 133.417969 157.796875 C 137.558594 157.796875 139.847656 160.019531 139.960938 160.132812 C 140.320312 160.496094 140.875 160.589844 141.332031 160.363281 C 141.421875 160.320312 150.328125 156.003906 163.445312 156.003906 C 176.523438 156.003906 185.46875 160.320312 185.558594 160.363281 C 186.015625 160.589844 186.566406 160.492188 186.925781 160.136719 C 187.066406 159.996094 190.40625 156.75 196.371094 158.140625 C 202.476562 159.5625 205.636719 167.84375 208.757812 180.734375 C 210.960938 189.855469 211.648438 204.679688 211.859375 212.707031 C 211.949219 215.988281 209.929688 218.929688 206.84375 220.027344 Z M 182.308594 156.5625 C 181.199219 156.195312 179.894531 155.8125 178.40625 155.441406 L 178.40625 149.335938 L 182.308594 149.335938 Z M 199.285156 156.695312 C 198.539062 156.320312 197.753906 156.023438 196.910156 155.828125 C 193.40625 155.011719 190.621094 155.546875 188.648438 156.34375 L 188.648438 155.585938 C 188.648438 154.671875 189.390625 153.929688 190.304688 153.929688 L 197.628906 153.929688 C 198.542969 153.929688 199.285156 154.671875 199.285156 155.585938 Z M 254.953125 199.429688 C 251.695312 200.585938 248.078125 199.394531 246.152344 196.523438 L 238.105469 184.527344 C 236.050781 181.464844 232.625 179.640625 228.941406 179.640625 L 210.933594 179.640625 C 209.777344 174.90625 208.613281 170.824219 207.292969 167.429688 L 221.085938 167.429688 C 221.746094 167.429688 222.273438 166.898438 222.273438 166.242188 L 222.273438 161.191406 C 222.273438 160.535156 221.746094 160.003906 221.085938 160.003906 L 205.519531 160.003906 C 204.859375 160.003906 204.328125 160.535156 204.328125 161.191406 L 204.328125 161.46875 C 203.515625 160.230469 202.632812 159.167969 201.660156 158.308594 L 201.660156 155.585938 C 201.660156 153.363281 199.851562 151.554688 197.628906 151.554688 L 190.304688 151.554688 C 188.082031 151.554688 186.269531 153.363281 186.269531 155.585938 L 186.269531 157.625 C 186.128906 157.722656 186 157.820312 185.886719 157.90625 C 185.582031 157.769531 185.175781 157.601562 184.683594 157.410156 L 184.683594 148.148438 C 184.683594 147.492188 184.152344 146.957031 183.496094 146.957031 L 177.21875 146.957031 C 176.558594 146.957031 176.03125 147.492188 176.03125 148.148438 L 176.03125 154.90625 C 173.648438 154.417969 170.925781 154.003906 167.90625 153.792969 C 170.914062 143.359375 174.0625 138.613281 178.628906 137.550781 C 184.589844 136.160156 187.933594 139.40625 188.066406 139.539062 C 188.429688 139.90625 188.984375 139.996094 189.441406 139.769531 C 189.527344 139.726562 198.4375 135.410156 211.550781 135.410156 C 224.632812 135.410156 233.578125 139.726562 233.667969 139.769531 C 234.125 139.996094 234.679688 139.902344 235.039062 139.535156 C 235.070312 139.503906 238.453125 136.144531 244.476562 137.546875 C 250.585938 138.972656 253.746094 147.25 256.867188 160.140625 C 259.070312 169.257812 259.753906 184.082031 259.964844 192.113281 C 260.054688 195.390625 258.039062 198.332031 254.953125 199.429688 Z M 206.707031 165.054688 L 206.707031 162.378906 L 219.898438 162.378906 L 219.898438 165.054688 Z M 221.089844 150.433594 L 205.519531 150.433594 C 204.859375 150.433594 204.328125 150.964844 204.328125 151.621094 L 204.328125 156.671875 C 204.328125 157.328125 204.859375 157.859375 205.519531 157.859375 L 221.085938 157.859375 C 221.746094 157.859375 222.273438 157.328125 222.273438 156.671875 L 222.273438 151.621094 C 222.277344 150.964844 221.746094 150.433594 221.089844 150.433594 Z M 219.902344 155.484375 L 206.707031 155.484375 L 206.707031 152.8125 L 219.898438 152.8125 L 219.898438 155.484375 Z M 240.449219 157.164062 C 243.558594 157.164062 246.09375 154.632812 246.09375 151.519531 C 246.09375 148.410156 243.558594 145.878906 240.449219 145.878906 C 237.335938 145.878906 234.804688 148.410156 234.804688 151.519531 C 234.804688 154.632812 237.335938 157.164062 240.449219 157.164062 Z M 240.449219 148.253906 C 242.25 148.253906 243.714844 149.71875 243.714844 151.519531 C 243.714844 153.320312 242.25 154.785156 240.449219 154.785156 C 238.648438 154.785156 237.179688 153.320312 237.179688 151.519531 C 237.179688 149.71875 238.648438 148.253906 240.449219 148.253906 Z M 236.984375 160.953125 C 236.984375 157.839844 234.453125 155.3125 231.339844 155.3125 C 228.230469 155.3125 225.695312 157.84375 225.695312 160.953125 C 225.695312 164.066406 228.230469 166.597656 231.339844 166.597656 C 234.453125 166.597656 236.984375 164.066406 236.984375 160.953125 Z M 231.339844 164.222656 C 229.539062 164.222656 228.074219 162.753906 228.074219 160.953125 C 228.074219 159.152344 229.539062 157.6875 231.339844 157.6875 C 233.140625 157.6875 234.609375 159.152344 234.609375 160.953125 C 234.609375 162.753906 233.140625 164.222656 231.339844 164.222656 Z M 240.175781 165.015625 C 237.0625 165.015625 234.53125 167.546875 234.53125 170.660156 C 234.53125 173.773438 237.0625 176.304688 240.175781 176.304688 C 243.289062 176.304688 245.820312 173.773438 245.820312 170.660156 C 245.820312 167.546875 243.289062 165.015625 240.175781 165.015625 Z M 240.175781 173.929688 C 238.371094 173.929688 236.90625 172.460938 236.90625 170.660156 C 236.90625 168.859375 238.371094 167.394531 240.175781 167.394531 C 241.976562 167.394531 243.441406 168.859375 243.441406 170.660156 C 243.441406 172.460938 241.976562 173.929688 240.175781 173.929688 Z M 249.882812 155.582031 C 246.769531 155.582031 244.238281 158.117188 244.238281 161.226562 C 244.238281 164.339844 246.769531 166.871094 249.882812 166.871094 C 252.996094 166.871094 255.527344 164.339844 255.527344 161.226562 C 255.527344 158.117188 252.996094 155.582031 249.882812 155.582031 Z M 249.882812 164.496094 C 248.078125 164.496094 246.613281 163.03125 246.613281 161.226562 C 246.613281 159.425781 248.078125 157.960938 249.882812 157.960938 C 251.683594 157.960938 253.148438 159.425781 253.148438 161.226562 C 253.148438 163.03125 251.683594 164.496094 249.882812 164.496094 Z M 140.808594 126.566406 L 224.945312 126.566406 C 225.601562 126.566406 226.132812 126.035156 226.132812 125.378906 L 226.132812 118.476562 C 226.132812 117.820312 225.601562 117.289062 224.945312 117.289062 L 140.808594 117.289062 C 140.148438 117.289062 139.621094 117.820312 139.621094 118.476562 L 139.621094 125.378906 C 139.621094 126.035156 140.152344 126.566406 140.808594 126.566406 Z M 141.996094 119.664062 L 223.757812 119.664062 L 223.757812 124.191406 L 141.996094 124.191406 Z M 234.945312 121.179688 C 236.980469 121.179688 238.636719 119.523438 238.636719 117.484375 C 238.636719 115.445312 236.980469 113.789062 234.945312 113.789062 C 232.90625 113.789062 231.25 115.449219 231.25 117.484375 C 231.25 119.519531 232.90625 121.179688 234.945312 121.179688 Z M 234.945312 116.164062 C 235.667969 116.164062 236.261719 116.757812 236.261719 117.484375 C 236.261719 118.210938 235.667969 118.800781 234.945312 118.800781 C 234.214844 118.800781 233.625 118.210938 233.625 117.484375 C 233.625 116.757812 234.214844 116.164062 234.945312 116.164062 Z M 234.945312 130.257812 C 236.980469 130.257812 238.636719 128.601562 238.636719 126.566406 C 238.636719 124.527344 236.980469 122.871094 234.945312 122.871094 C 232.90625 122.871094 231.25 124.527344 231.25 126.566406 C 231.25 128.601562 232.90625 130.257812 234.945312 130.257812 Z M 234.945312 125.246094 C 235.667969 125.246094 236.261719 125.835938 236.261719 126.566406 C 236.261719 127.292969 235.667969 127.882812 234.945312 127.882812 C 234.214844 127.882812 233.625 127.292969 233.625 126.566406 C 233.625 125.835938 234.214844 125.246094 234.945312 125.246094 Z M 234.945312 125.246094 " clip-rule="nonzero"/></clipPath><linearGradient x1="63" gradientTransform="matrix(1.188047, 0, 0, 1.188047, 112.653032, 108.435057)" y1="-0.0000179438" x2="63" gradientUnits="userSpaceOnUse" y2="97.094977" id="fa74b18b4c"><stop stop-opacity="1" stop-color="rgb(100%, 56.898499%, 30.198669%)" offset="0"/><stop stop-opacity="1" stop-color="rgb(100%, 56.736755%, 30.204773%)" offset="0.0078125"/><stop stop-opacity="1" stop-color="rgb(100%, 56.411743%, 30.218506%)" offset="0.015625"/><stop stop-opacity="1" stop-color="rgb(100%, 56.086731%, 30.230713%)" offset="0.0234375"/><stop stop-opacity="1" stop-color="rgb(100%, 55.763245%, 30.24292%)" offset="0.03125"/><stop stop-opacity="1" stop-color="rgb(100%, 55.438232%, 30.255127%)" offset="0.0390625"/><stop stop-opacity="1" stop-color="rgb(100%, 55.11322%, 30.26886%)" offset="0.046875"/><stop stop-opacity="1" stop-color="rgb(100%, 54.789734%, 30.281067%)" offset="0.0546875"/><stop stop-opacity="1" stop-color="rgb(100%, 54.464722%, 30.293274%)" offset="0.0625"/><stop stop-opacity="1" stop-color="rgb(100%, 54.139709%, 30.305481%)" offset="0.0703125"/><stop stop-opacity="1" stop-color="rgb(100%, 53.816223%, 30.319214%)" offset="0.078125"/><stop stop-opacity="1" stop-color="rgb(100%, 53.491211%, 30.331421%)" offset="0.0859375"/><stop stop-opacity="1" stop-color="rgb(100%, 53.166199%, 30.343628%)" offset="0.09375"/><stop stop-opacity="1" stop-color="rgb(100%, 52.842712%, 30.355835%)" offset="0.101562"/><stop stop-opacity="1" stop-color="rgb(100%, 52.5177%, 30.369568%)" offset="0.109375"/><stop stop-opacity="1" stop-color="rgb(100%, 52.192688%, 30.381775%)" offset="0.117188"/><stop stop-opacity="1" stop-color="rgb(100%, 51.867676%, 30.393982%)" offset="0.125"/><stop stop-opacity="1" stop-color="rgb(100%, 51.544189%, 30.407715%)" offset="0.132812"/><stop stop-opacity="1" stop-color="rgb(100%, 51.219177%, 30.419922%)" offset="0.140625"/><stop stop-opacity="1" stop-color="rgb(100%, 50.894165%, 30.432129%)" offset="0.148437"/><stop stop-opacity="1" stop-color="rgb(100%, 50.570679%, 30.444336%)" offset="0.15625"/><stop stop-opacity="1" stop-color="rgb(100%, 50.245667%, 30.458069%)" offset="0.164062"/><stop stop-opacity="1" stop-color="rgb(100%, 49.920654%, 30.470276%)" offset="0.171875"/><stop stop-opacity="1" stop-color="rgb(100%, 49.597168%, 30.482483%)" offset="0.179687"/><stop stop-opacity="1" stop-color="rgb(100%, 49.272156%, 30.49469%)" offset="0.1875"/><stop stop-opacity="1" stop-color="rgb(100%, 48.947144%, 30.508423%)" offset="0.195312"/><stop stop-opacity="1" stop-color="rgb(100%, 48.623657%, 30.52063%)" offset="0.203125"/><stop stop-opacity="1" stop-color="rgb(100%, 48.298645%, 30.532837%)" offset="0.210937"/><stop stop-opacity="1" stop-color="rgb(100%, 47.973633%, 30.545044%)" offset="0.21875"/><stop stop-opacity="1" stop-color="rgb(100%, 47.648621%, 30.558777%)" offset="0.226562"/><stop stop-opacity="1" stop-color="rgb(100%, 47.325134%, 30.570984%)" offset="0.234375"/><stop stop-opacity="1" stop-color="rgb(100%, 47.000122%, 30.583191%)" offset="0.242187"/><stop stop-opacity="1" stop-color="rgb(100%, 46.67511%, 30.595398%)" offset="0.25"/><stop stop-opacity="1" stop-color="rgb(100%, 46.351624%, 30.609131%)" offset="0.257812"/><stop stop-opacity="1" stop-color="rgb(100%, 46.026611%, 30.621338%)" offset="0.265625"/><stop stop-opacity="1" stop-color="rgb(100%, 45.701599%, 30.633545%)" offset="0.273437"/><stop stop-opacity="1" stop-color="rgb(100%, 45.378113%, 30.645752%)" offset="0.28125"/><stop stop-opacity="1" stop-color="rgb(100%, 45.053101%, 30.659485%)" offset="0.289062"/><stop stop-opacity="1" stop-color="rgb(100%, 44.728088%, 30.671692%)" offset="0.296875"/><stop stop-opacity="1" stop-color="rgb(100%, 44.404602%, 30.683899%)" offset="0.304687"/><stop stop-opacity="1" stop-color="rgb(100%, 44.07959%, 30.697632%)" offset="0.3125"/><stop stop-opacity="1" stop-color="rgb(100%, 43.754578%, 30.709839%)" offset="0.320312"/><stop stop-opacity="1" stop-color="rgb(100%, 43.431091%, 30.722046%)" offset="0.328125"/><stop stop-opacity="1" stop-color="rgb(100%, 43.106079%, 30.734253%)" offset="0.335937"/><stop stop-opacity="1" stop-color="rgb(100%, 42.781067%, 30.747986%)" offset="0.34375"/><stop stop-opacity="1" stop-color="rgb(100%, 42.456055%, 30.760193%)" offset="0.351562"/><stop stop-opacity="1" stop-color="rgb(100%, 42.132568%, 30.7724%)" offset="0.359375"/><stop stop-opacity="1" stop-color="rgb(100%, 41.807556%, 30.784607%)" offset="0.367187"/><stop stop-opacity="1" stop-color="rgb(100%, 41.482544%, 30.79834%)" offset="0.375"/><stop stop-opacity="1" stop-color="rgb(100%, 41.159058%, 30.810547%)" offset="0.382812"/><stop stop-opacity="1" stop-color="rgb(100%, 40.834045%, 30.822754%)" offset="0.390625"/><stop stop-opacity="1" stop-color="rgb(100%, 40.509033%, 30.834961%)" offset="0.398437"/><stop stop-opacity="1" stop-color="rgb(100%, 40.185547%, 30.848694%)" offset="0.40625"/><stop stop-opacity="1" stop-color="rgb(100%, 39.860535%, 30.860901%)" offset="0.414062"/><stop stop-opacity="1" stop-color="rgb(100%, 39.535522%, 30.873108%)" offset="0.421875"/><stop stop-opacity="1" stop-color="rgb(100%, 39.212036%, 30.885315%)" offset="0.429687"/><stop stop-opacity="1" stop-color="rgb(100%, 38.887024%, 30.899048%)" offset="0.4375"/><stop stop-opacity="1" stop-color="rgb(100%, 38.562012%, 30.911255%)" offset="0.445312"/><stop stop-opacity="1" stop-color="rgb(100%, 38.237%, 30.923462%)" offset="0.453125"/><stop stop-opacity="1" stop-color="rgb(100%, 37.913513%, 30.935669%)" offset="0.460937"/><stop stop-opacity="1" stop-color="rgb(100%, 37.588501%, 30.949402%)" offset="0.46875"/><stop stop-opacity="1" stop-color="rgb(100%, 37.263489%, 30.961609%)" offset="0.476562"/><stop stop-opacity="1" stop-color="rgb(100%, 36.940002%, 30.973816%)" offset="0.484375"/><stop stop-opacity="1" stop-color="rgb(100%, 36.61499%, 30.986023%)" offset="0.492187"/><stop stop-opacity="1" stop-color="rgb(100%, 36.289978%, 30.999756%)" offset="0.5"/><stop stop-opacity="1" stop-color="rgb(100%, 35.966492%, 31.011963%)" offset="0.507812"/><stop stop-opacity="1" stop-color="rgb(100%, 35.641479%, 31.02417%)" offset="0.515625"/><stop stop-opacity="1" stop-color="rgb(100%, 35.316467%, 31.037903%)" offset="0.523438"/><stop stop-opacity="1" stop-color="rgb(100%, 34.992981%, 31.05011%)" offset="0.53125"/><stop stop-opacity="1" stop-color="rgb(100%, 34.667969%, 31.062317%)" offset="0.539062"/><stop stop-opacity="1" stop-color="rgb(100%, 34.342957%, 31.074524%)" offset="0.546875"/><stop stop-opacity="1" stop-color="rgb(100%, 34.01947%, 31.088257%)" offset="0.554687"/><stop stop-opacity="1" stop-color="rgb(100%, 33.694458%, 31.100464%)" offset="0.5625"/><stop stop-opacity="1" stop-color="rgb(100%, 33.369446%, 31.112671%)" offset="0.570312"/><stop stop-opacity="1" stop-color="rgb(100%, 33.044434%, 31.124878%)" offset="0.578125"/><stop stop-opacity="1" stop-color="rgb(100%, 32.720947%, 31.138611%)" offset="0.585937"/><stop stop-opacity="1" stop-color="rgb(100%, 32.395935%, 31.150818%)" offset="0.59375"/><stop stop-opacity="1" stop-color="rgb(100%, 32.070923%, 31.163025%)" offset="0.601562"/><stop stop-opacity="1" stop-color="rgb(100%, 31.747437%, 31.175232%)" offset="0.609375"/><stop stop-opacity="1" stop-color="rgb(100%, 31.422424%, 31.188965%)" offset="0.617187"/><stop stop-opacity="1" stop-color="rgb(100%, 31.097412%, 31.201172%)" offset="0.625"/><stop stop-opacity="1" stop-color="rgb(100%, 30.773926%, 31.213379%)" offset="0.632812"/><stop stop-opacity="1" stop-color="rgb(100%, 30.448914%, 31.225586%)" offset="0.640625"/><stop stop-opacity="1" stop-color="rgb(100%, 30.123901%, 31.239319%)" offset="0.648437"/><stop stop-opacity="1" stop-color="rgb(100%, 29.800415%, 31.251526%)" offset="0.65625"/><stop stop-opacity="1" stop-color="rgb(100%, 29.475403%, 31.263733%)" offset="0.664062"/><stop stop-opacity="1" stop-color="rgb(100%, 29.150391%, 31.27594%)" offset="0.671875"/><stop stop-opacity="1" stop-color="rgb(100%, 28.825378%, 31.289673%)" offset="0.679687"/><stop stop-opacity="1" stop-color="rgb(100%, 28.501892%, 31.30188%)" offset="0.6875"/><stop stop-opacity="1" stop-color="rgb(100%, 28.17688%, 31.314087%)" offset="0.695312"/><stop stop-opacity="1" stop-color="rgb(100%, 27.851868%, 31.326294%)" offset="0.703125"/><stop stop-opacity="1" stop-color="rgb(100%, 27.528381%, 31.340027%)" offset="0.710938"/><stop stop-opacity="1" stop-color="rgb(100%, 27.203369%, 31.352234%)" offset="0.71875"/><stop stop-opacity="1" stop-color="rgb(100%, 26.878357%, 31.364441%)" offset="0.726562"/><stop stop-opacity="1" stop-color="rgb(100%, 26.554871%, 31.378174%)" offset="0.734375"/><stop stop-opacity="1" stop-color="rgb(100%, 26.229858%, 31.390381%)" offset="0.742188"/><stop stop-opacity="1" stop-color="rgb(100%, 25.904846%, 31.402588%)" offset="0.75"/><stop stop-opacity="1" stop-color="rgb(100%, 25.58136%, 31.414795%)" offset="0.757812"/><stop stop-opacity="1" stop-color="rgb(100%, 25.256348%, 31.428528%)" offset="0.765625"/><stop stop-opacity="1" stop-color="rgb(100%, 24.931335%, 31.440735%)" offset="0.773437"/><stop stop-opacity="1" stop-color="rgb(100%, 24.607849%, 31.452942%)" offset="0.78125"/><stop stop-opacity="1" stop-color="rgb(100%, 24.282837%, 31.465149%)" offset="0.789062"/><stop stop-opacity="1" stop-color="rgb(100%, 23.957825%, 31.478882%)" offset="0.796875"/><stop stop-opacity="1" stop-color="rgb(100%, 23.632812%, 31.491089%)" offset="0.804687"/><stop stop-opacity="1" stop-color="rgb(100%, 23.309326%, 31.503296%)" offset="0.8125"/><stop stop-opacity="1" stop-color="rgb(100%, 22.984314%, 31.515503%)" offset="0.820312"/><stop stop-opacity="1" stop-color="rgb(100%, 22.659302%, 31.529236%)" offset="0.828125"/><stop stop-opacity="1" stop-color="rgb(100%, 22.335815%, 31.541443%)" offset="0.835937"/><stop stop-opacity="1" stop-color="rgb(100%, 22.010803%, 31.55365%)" offset="0.84375"/><stop stop-opacity="1" stop-color="rgb(100%, 21.685791%, 31.565857%)" offset="0.851562"/><stop stop-opacity="1" stop-color="rgb(100%, 21.362305%, 31.57959%)" offset="0.859375"/><stop stop-opacity="1" stop-color="rgb(100%, 21.037292%, 31.591797%)" offset="0.867187"/><stop stop-opacity="1" stop-color="rgb(100%, 20.71228%, 31.604004%)" offset="0.875"/><stop stop-opacity="1" stop-color="rgb(100%, 20.388794%, 31.616211%)" offset="0.882812"/><stop stop-opacity="1" stop-color="rgb(100%, 20.063782%, 31.629944%)" offset="0.890625"/><stop stop-opacity="1" stop-color="rgb(100%, 19.73877%, 31.642151%)" offset="0.898438"/><stop stop-opacity="1" stop-color="rgb(100%, 19.413757%, 31.654358%)" offset="0.90625"/><stop stop-opacity="1" stop-color="rgb(100%, 19.090271%, 31.668091%)" offset="0.914062"/><stop stop-opacity="1" stop-color="rgb(100%, 18.765259%, 31.680298%)" offset="0.921875"/><stop stop-opacity="1" stop-color="rgb(100%, 18.440247%, 31.692505%)" offset="0.929688"/><stop stop-opacity="1" stop-color="rgb(100%, 18.11676%, 31.704712%)" offset="0.9375"/><stop stop-opacity="1" stop-color="rgb(100%, 17.791748%, 31.718445%)" offset="0.945312"/><stop stop-opacity="1" stop-color="rgb(100%, 17.466736%, 31.730652%)" offset="0.953125"/><stop stop-opacity="1" stop-color="rgb(100%, 17.14325%, 31.742859%)" offset="0.960937"/><stop stop-opacity="1" stop-color="rgb(100%, 16.818237%, 31.755066%)" offset="0.96875"/><stop stop-opacity="1" stop-color="rgb(100%, 16.493225%, 31.768799%)" offset="0.976562"/><stop stop-opacity="1" stop-color="rgb(100%, 16.169739%, 31.781006%)" offset="0.984375"/><stop stop-opacity="1" stop-color="rgb(100%, 15.853882%, 31.793213%)" offset="1"/></linearGradient></defs><g mask="url(#8d3e687e6a)"><g transform="matrix(1, 0, 0, 1, 66, 99)"><g clip-path="url(#bfb39094b1)"><g clip-path="url(#dd786c9e11)"><path fill="#ff2851" d="M 242.648438 133.292969 L 199.828125 133.292969 L 199.828125 0.941406 L 242.269531 0.941406 L 242.269531 16.796875 L 218.058594 16.796875 L 218.058594 58.382812 L 239.230469 58.382812 L 239.230469 74.238281 L 218.058594 74.238281 L 218.058594 117.4375 L 242.648438 117.4375 Z M 201.539062 131.488281 L 240.84375 131.488281 L 240.84375 119.144531 L 216.253906 119.144531 L 216.253906 72.433594 L 237.425781 72.433594 L 237.425781 60.089844 L 216.253906 60.089844 L 216.253906 14.992188 L 240.464844 14.992188 L 240.464844 2.648438 L 201.441406 2.648438 L 201.441406 131.488281 Z M 190.238281 133.292969 L 172.863281 133.292969 L 172.863281 43.761719 L 161.566406 133.292969 L 143.71875 133.292969 L 132.417969 43.761719 L 132.417969 133.292969 L 115.707031 133.292969 L 115.707031 0.941406 L 141.25 0.941406 L 152.640625 99.777344 L 164.035156 0.941406 L 190.050781 0.941406 L 190.050781 133.292969 Z M 174.574219 131.488281 L 188.433594 131.488281 L 188.433594 2.648438 L 165.648438 2.648438 L 152.640625 114.875 L 139.824219 2.648438 L 117.605469 2.648438 L 117.605469 131.488281 L 130.804688 131.488281 L 130.804688 29.898438 L 132.511719 29.804688 L 145.332031 131.488281 L 160.140625 131.488281 L 172.960938 29.804688 L 174.667969 29.898438 L 174.667969 131.488281 Z M 110.390625 133.292969 L 91.402344 133.292969 L 88.175781 99.585938 L 74.691406 99.585938 L 71.371094 133.292969 L 53.140625 133.292969 L 68.996094 0.941406 L 94.25 0.941406 Z M 93.015625 131.488281 L 108.398438 131.488281 L 92.730469 2.648438 L 70.515625 2.648438 L 55.132812 131.488281 L 69.851562 131.488281 L 73.078125 97.785156 L 89.789062 97.785156 Z M 38.804688 133.292969 L 11.175781 133.292969 L 0.351562 122.46875 L 0.351562 11.765625 L 11.175781 0.941406 L 38.898438 0.941406 L 49.722656 11.765625 L 49.722656 40.628906 L 31.398438 40.628906 L 31.398438 19.644531 L 28.457031 16.703125 L 21.429688 16.703125 L 18.582031 19.644531 L 18.582031 114.492188 L 21.523438 117.4375 L 28.550781 117.4375 L 31.492188 114.492188 L 31.492188 80.027344 L 23.234375 80.027344 L 23.234375 63.507812 L 49.722656 63.507812 L 49.722656 122.46875 Z M 11.839844 131.488281 L 38.140625 131.488281 L 47.917969 121.710938 L 47.917969 65.21875 L 24.941406 65.21875 L 24.941406 78.226562 L 33.203125 78.226562 L 33.203125 115.15625 L 29.214844 119.144531 L 20.765625 119.144531 L 16.777344 115.15625 L 16.777344 18.980469 L 20.765625 14.992188 L 29.214844 14.992188 L 33.203125 18.980469 L 33.203125 38.917969 L 48.011719 38.917969 L 48.011719 12.429688 L 38.140625 2.648438 L 11.839844 2.648438 L 2.0625 12.429688 L 2.0625 121.710938 Z M 88.746094 85.441406 L 74.125 85.441406 L 80.578125 18.695312 L 82.289062 18.695312 Z M 76.023438 83.730469 L 86.84375 83.730469 L 81.433594 27.808594 Z M 76.023438 83.730469 " fill-opacity="1" fill-rule="nonzero"/></g></g></g></g><g clip-path="url(#eef81b4a1a)"><g clip-path="url(#99f19b795b)"><path fill="url(#fa74b18b4c)" d="M 112.542969 108.433594 L 112.542969 223.789062 L 262.457031 223.789062 L 262.457031 108.433594 Z M 112.542969 108.433594 " fill-rule="nonzero"/></g></g><g fill="#ff2851" fill-opacity="1"><g transform="translate(97.476561, 268.21006)"><g><path d="M 18.8125 3.703125 L 9.015625 3.703125 C 6.296875 3.703125 4.289062 2.992188 3 1.578125 C 1.707031 0.171875 1.0625 -1.648438 1.0625 -3.890625 L 1.0625 -12.65625 C 1.0625 -13.789062 1.222656 -14.773438 1.546875 -15.609375 C 1.878906 -16.441406 2.367188 -17.132812 3.015625 -17.6875 L 7.03125 -21.078125 C 7.664062 -21.617188 8.484375 -22.023438 9.484375 -22.296875 C 10.492188 -22.566406 11.675781 -22.703125 13.03125 -22.703125 L 20.796875 -22.703125 C 21.296875 -22.703125 21.660156 -22.585938 21.890625 -22.359375 C 22.117188 -22.128906 22.234375 -21.765625 22.234375 -21.265625 L 22.234375 -17.5 C 22.234375 -17.238281 22.195312 -17.015625 22.125 -16.828125 C 22.050781 -16.640625 21.941406 -16.484375 21.796875 -16.359375 L 17.75 -13 C 17.664062 -12.914062 17.535156 -12.84375 17.359375 -12.78125 C 17.191406 -12.71875 17.003906 -12.6875 16.796875 -12.6875 L 12.75 -12.6875 L 12.75 -8.203125 C 12.769531 -8.242188 12.804688 -8.289062 12.859375 -8.34375 C 12.910156 -8.394531 12.957031 -8.441406 13 -8.484375 L 17.015625 -11.875 C 17.109375 -11.957031 17.242188 -12.023438 17.421875 -12.078125 C 17.597656 -12.128906 17.789062 -12.15625 18 -12.15625 L 22.828125 -12.15625 C 23.316406 -12.15625 23.675781 -12.039062 23.90625 -11.8125 C 24.132812 -11.582031 24.25 -11.222656 24.25 -10.734375 L 24.25 -1.125 C 24.25 -0.851562 24.210938 -0.625 24.140625 -0.4375 C 24.066406 -0.25 23.957031 -0.09375 23.8125 0.03125 L 19.78125 3.390625 C 19.695312 3.472656 19.566406 3.546875 19.390625 3.609375 C 19.210938 3.671875 19.019531 3.703125 18.8125 3.703125 Z M 22.828125 0 C 23.210938 0 23.492188 -0.0859375 23.671875 -0.265625 C 23.847656 -0.441406 23.9375 -0.726562 23.9375 -1.125 L 23.9375 -10.734375 C 23.9375 -11.117188 23.847656 -11.398438 23.671875 -11.578125 C 23.492188 -11.753906 23.210938 -11.84375 22.828125 -11.84375 L 18 -11.84375 C 17.601562 -11.84375 17.316406 -11.753906 17.140625 -11.578125 C 16.972656 -11.398438 16.890625 -11.117188 16.890625 -10.734375 L 16.890625 -5.875 L 13.875 -5.875 C 13.394531 -5.875 13.035156 -6 12.796875 -6.25 C 12.554688 -6.5 12.4375 -6.882812 12.4375 -7.40625 L 12.4375 -14.828125 C 12.4375 -15.347656 12.59375 -15.738281 12.90625 -16 C 13.21875 -16.257812 13.691406 -16.390625 14.328125 -16.390625 L 20.796875 -16.390625 C 21.191406 -16.390625 21.476562 -16.476562 21.65625 -16.65625 C 21.832031 -16.832031 21.921875 -17.113281 21.921875 -17.5 L 21.921875 -21.265625 C 21.921875 -21.660156 21.832031 -21.945312 21.65625 -22.125 C 21.476562 -22.300781 21.191406 -22.390625 20.796875 -22.390625 L 13.03125 -22.390625 C 10.4375 -22.390625 8.507812 -21.867188 7.25 -20.828125 C 6 -19.796875 5.375 -18.203125 5.375 -16.046875 L 5.375 -6.34375 C 5.375 -4.1875 6 -2.585938 7.25 -1.546875 C 8.507812 -0.515625 10.4375 0 13.03125 0 Z M 14.359375 -2.796875 C 13.222656 -2.796875 12.289062 -2.867188 11.5625 -3.015625 C 10.84375 -3.160156 10.273438 -3.394531 9.859375 -3.71875 C 9.441406 -4.039062 9.15625 -4.453125 9 -4.953125 C 8.84375 -5.460938 8.765625 -6.082031 8.765625 -6.8125 L 8.765625 -15.515625 C 8.765625 -16.984375 9.097656 -18.03125 9.765625 -18.65625 C 10.429688 -19.28125 11.757812 -19.59375 13.75 -19.59375 L 19.125 -19.59375 L 19.125 -19.28125 L 13.75 -19.28125 C 11.914062 -19.28125 10.675781 -18.992188 10.03125 -18.421875 C 9.394531 -17.847656 9.078125 -16.878906 9.078125 -15.515625 L 9.078125 -6.8125 C 9.078125 -5.457031 9.429688 -4.5 10.140625 -3.9375 C 10.859375 -3.382812 12.265625 -3.109375 14.359375 -3.109375 L 20.234375 -3.109375 L 20.234375 -9.046875 L 20.546875 -9.046875 L 20.546875 -2.796875 Z M 14.359375 -2.796875 "/></g></g></g><g fill="#ff2851" fill-opacity="1"><g transform="translate(122.587621, 268.21006)"><g><path d="M 10.265625 -4.296875 L 1.921875 -4.296875 C 1.429688 -4.296875 1.070312 -4.398438 0.84375 -4.609375 C 0.613281 -4.828125 0.5 -5.195312 0.5 -5.71875 L 0.5 -9.890625 C 0.5 -10.160156 0.535156 -10.390625 0.609375 -10.578125 C 0.679688 -10.765625 0.789062 -10.914062 0.9375 -11.03125 L 4.9375 -14.421875 C 5.039062 -14.503906 5.179688 -14.570312 5.359375 -14.625 C 5.535156 -14.675781 5.726562 -14.703125 5.9375 -14.703125 L 14.265625 -14.703125 C 14.765625 -14.703125 15.128906 -14.59375 15.359375 -14.375 C 15.585938 -14.15625 15.703125 -13.789062 15.703125 -13.28125 L 15.703125 -9.109375 C 15.703125 -8.835938 15.664062 -8.609375 15.59375 -8.421875 C 15.519531 -8.234375 15.410156 -8.078125 15.265625 -7.953125 L 11.25 -4.578125 C 11.125 -4.492188 10.976562 -4.425781 10.8125 -4.375 C 10.65625 -4.320312 10.472656 -4.296875 10.265625 -4.296875 Z M 5.9375 -7.984375 L 14.265625 -7.984375 C 14.660156 -7.984375 14.945312 -8.070312 15.125 -8.25 C 15.300781 -8.425781 15.390625 -8.710938 15.390625 -9.109375 L 15.390625 -13.28125 C 15.390625 -13.675781 15.300781 -13.957031 15.125 -14.125 C 14.945312 -14.300781 14.660156 -14.390625 14.265625 -14.390625 L 5.9375 -14.390625 C 5.539062 -14.390625 5.253906 -14.300781 5.078125 -14.125 C 4.898438 -13.957031 4.8125 -13.675781 4.8125 -13.28125 L 4.8125 -9.109375 C 4.8125 -8.710938 4.898438 -8.425781 5.078125 -8.25 C 5.253906 -8.070312 5.539062 -7.984375 5.9375 -7.984375 Z M 12.59375 -11.34375 L 12.59375 -11.03125 L 7.625 -11.03125 L 7.625 -11.34375 Z M 12.59375 -11.34375 "/></g></g></g><g fill="#ff2851" fill-opacity="1"><g transform="translate(138.7482, 268.21006)"><g><path d="M 16.609375 3.703125 L 9.015625 3.703125 C 6.296875 3.703125 4.289062 2.992188 3 1.578125 C 1.707031 0.171875 1.0625 -1.648438 1.0625 -3.890625 L 1.0625 -12.625 C 1.0625 -13.757812 1.222656 -14.75 1.546875 -15.59375 C 1.878906 -16.4375 2.367188 -17.132812 3.015625 -17.6875 L 7.0625 -21.078125 C 7.695312 -21.617188 8.507812 -22.023438 9.5 -22.296875 C 10.5 -22.566406 11.675781 -22.703125 13.03125 -22.703125 L 20.609375 -22.703125 C 21.109375 -22.703125 21.472656 -22.585938 21.703125 -22.359375 C 21.929688 -22.128906 22.046875 -21.765625 22.046875 -21.265625 L 22.046875 -17.5 C 22.046875 -17.238281 22.007812 -17.015625 21.9375 -16.828125 C 21.863281 -16.640625 21.753906 -16.484375 21.609375 -16.359375 L 17.5625 -13 C 17.476562 -12.914062 17.347656 -12.84375 17.171875 -12.78125 C 17.003906 -12.71875 16.816406 -12.6875 16.609375 -12.6875 L 12.78125 -12.6875 L 12.78125 -7.4375 C 12.78125 -7 12.914062 -6.691406 13.1875 -6.515625 C 13.457031 -6.335938 13.847656 -6.25 14.359375 -6.25 L 20.609375 -6.25 C 21.109375 -6.25 21.472656 -6.132812 21.703125 -5.90625 C 21.929688 -5.675781 22.046875 -5.3125 22.046875 -4.8125 L 22.046875 -1.125 C 22.046875 -0.851562 22.007812 -0.625 21.9375 -0.4375 C 21.863281 -0.25 21.753906 -0.09375 21.609375 0.03125 L 17.5625 3.390625 C 17.476562 3.472656 17.347656 3.546875 17.171875 3.609375 C 17.003906 3.671875 16.816406 3.703125 16.609375 3.703125 Z M 20.609375 0 C 21.003906 0 21.289062 -0.0859375 21.46875 -0.265625 C 21.644531 -0.441406 21.734375 -0.726562 21.734375 -1.125 L 21.734375 -4.8125 C 21.734375 -5.207031 21.644531 -5.492188 21.46875 -5.671875 C 21.289062 -5.847656 21.003906 -5.9375 20.609375 -5.9375 L 14.359375 -5.9375 C 13.722656 -5.9375 13.25 -6.054688 12.9375 -6.296875 C 12.625 -6.535156 12.46875 -6.914062 12.46875 -7.4375 L 12.46875 -14.828125 C 12.46875 -15.347656 12.625 -15.738281 12.9375 -16 C 13.25 -16.257812 13.722656 -16.390625 14.359375 -16.390625 L 20.609375 -16.390625 C 21.003906 -16.390625 21.289062 -16.476562 21.46875 -16.65625 C 21.644531 -16.832031 21.734375 -17.113281 21.734375 -17.5 L 21.734375 -21.265625 C 21.734375 -21.660156 21.644531 -21.945312 21.46875 -22.125 C 21.289062 -22.300781 21.003906 -22.390625 20.609375 -22.390625 L 13.03125 -22.390625 C 10.4375 -22.390625 8.507812 -21.863281 7.25 -20.8125 C 6 -19.769531 5.375 -18.171875 5.375 -16.015625 L 5.375 -6.34375 C 5.375 -4.1875 6 -2.585938 7.25 -1.546875 C 8.507812 -0.515625 10.4375 0 13.03125 0 Z M 18.90625 -3.109375 L 18.90625 -2.796875 L 13.71875 -2.796875 C 11.707031 -2.796875 10.375 -3.109375 9.71875 -3.734375 C 9.0625 -4.359375 8.734375 -5.382812 8.734375 -6.8125 L 8.734375 -15.515625 C 8.734375 -16.984375 9.066406 -18.03125 9.734375 -18.65625 C 10.398438 -19.28125 11.726562 -19.59375 13.71875 -19.59375 L 18.90625 -19.59375 L 18.90625 -19.28125 L 13.71875 -19.28125 C 11.882812 -19.28125 10.644531 -18.992188 10 -18.421875 C 9.363281 -17.847656 9.046875 -16.878906 9.046875 -15.515625 L 9.046875 -6.8125 C 9.046875 -5.457031 9.351562 -4.5 9.96875 -3.9375 C 10.59375 -3.382812 11.84375 -3.109375 13.71875 -3.109375 Z M 18.90625 -3.109375 "/></g></g></g><g fill="#ff2851" fill-opacity="1"><g transform="translate(161.373007, 268.21006)"><g><path d="M 16.171875 -19.28125 L 9.390625 -19.28125 L 9.390625 -10.296875 L 16.171875 -10.296875 C 17.453125 -10.296875 18.3125 -10.601562 18.75 -11.21875 C 19.1875 -11.84375 19.40625 -12.726562 19.40625 -13.875 L 19.40625 -16.046875 C 19.40625 -16.992188 19.140625 -17.769531 18.609375 -18.375 C 18.078125 -18.976562 17.265625 -19.28125 16.171875 -19.28125 Z M 12.75 -16.796875 L 15.078125 -16.796875 C 15.617188 -16.796875 15.984375 -16.65625 16.171875 -16.375 C 16.359375 -16.09375 16.453125 -15.742188 16.453125 -15.328125 L 16.453125 -14.265625 C 16.453125 -13.859375 16.359375 -13.515625 16.171875 -13.234375 C 15.984375 -12.953125 15.617188 -12.8125 15.078125 -12.8125 L 12.75 -12.8125 Z M 9.390625 -2.796875 L 9.078125 -2.796875 L 9.078125 -19.59375 L 16.171875 -19.59375 C 17.367188 -19.59375 18.257812 -19.253906 18.84375 -18.578125 C 19.425781 -17.898438 19.71875 -17.054688 19.71875 -16.046875 L 19.71875 -13.90625 C 19.71875 -12.945312 19.59375 -12.160156 19.34375 -11.546875 C 19.09375 -10.941406 18.59375 -10.523438 17.84375 -10.296875 L 18.1875 -10.296875 C 19.457031 -10.296875 20.398438 -10.007812 21.015625 -9.4375 C 21.640625 -8.863281 21.953125 -8.039062 21.953125 -6.96875 L 21.953125 -2.796875 L 21.640625 -2.796875 L 21.640625 -6.96875 C 21.640625 -7.976562 21.359375 -8.738281 20.796875 -9.25 C 20.242188 -9.757812 19.375 -10.015625 18.1875 -10.015625 L 9.390625 -10.015625 Z M 11.625 0 C 12.019531 0 12.304688 -0.0859375 12.484375 -0.265625 C 12.660156 -0.441406 12.75 -0.726562 12.75 -1.125 L 12.75 -7.21875 L 17.109375 -7.21875 C 17.535156 -7.21875 17.835938 -7.109375 18.015625 -6.890625 C 18.191406 -6.671875 18.28125 -6.332031 18.28125 -5.875 L 18.28125 -1.125 C 18.28125 -0.726562 18.367188 -0.441406 18.546875 -0.265625 C 18.722656 -0.0859375 19.007812 0 19.40625 0 L 24.21875 0 C 24.613281 0 24.898438 -0.0859375 25.078125 -0.265625 C 25.253906 -0.441406 25.34375 -0.726562 25.34375 -1.125 L 25.34375 -7.71875 C 25.34375 -9.019531 24.992188 -10.0625 24.296875 -10.84375 C 23.609375 -11.632812 22.703125 -12.09375 21.578125 -12.21875 C 22.222656 -12.488281 22.675781 -12.925781 22.9375 -13.53125 C 23.195312 -14.144531 23.328125 -14.890625 23.328125 -15.765625 L 23.328125 -17.1875 C 23.328125 -18.726562 22.882812 -19.976562 22 -20.9375 C 21.113281 -21.90625 19.507812 -22.390625 17.1875 -22.390625 L 6.84375 -22.390625 C 6.445312 -22.390625 6.160156 -22.300781 5.984375 -22.125 C 5.804688 -21.945312 5.71875 -21.660156 5.71875 -21.265625 L 5.71875 -1.125 C 5.71875 -0.726562 5.804688 -0.441406 5.984375 -0.265625 C 6.160156 -0.0859375 6.445312 0 6.84375 0 Z M 12.625 0.03125 L 8.578125 3.390625 C 8.492188 3.472656 8.363281 3.546875 8.1875 3.609375 C 8.007812 3.671875 7.820312 3.703125 7.625 3.703125 L 2.828125 3.703125 C 2.328125 3.703125 1.960938 3.585938 1.734375 3.359375 C 1.515625 3.128906 1.40625 2.765625 1.40625 2.265625 L 1.40625 -17.875 C 1.40625 -18.144531 1.4375 -18.375 1.5 -18.5625 C 1.570312 -18.75 1.679688 -18.90625 1.828125 -19.03125 L 5.84375 -22.421875 C 5.945312 -22.503906 6.085938 -22.570312 6.265625 -22.625 C 6.441406 -22.675781 6.632812 -22.703125 6.84375 -22.703125 L 17.1875 -22.703125 C 19.65625 -22.703125 21.34375 -22.1875 22.25 -21.15625 C 23.164062 -20.132812 23.625 -18.8125 23.625 -17.1875 L 23.625 -15.765625 C 23.625 -14.992188 23.53125 -14.320312 23.34375 -13.75 C 23.164062 -13.1875 22.867188 -12.726562 22.453125 -12.375 L 22.421875 -12.375 C 23.390625 -12.101562 24.171875 -11.5625 24.765625 -10.75 C 25.359375 -9.945312 25.65625 -8.9375 25.65625 -7.71875 L 25.65625 -1.125 C 25.65625 -0.851562 25.617188 -0.625 25.546875 -0.4375 C 25.472656 -0.25 25.363281 -0.09375 25.21875 0.03125 L 21.171875 3.390625 C 21.085938 3.472656 20.957031 3.546875 20.78125 3.609375 C 20.601562 3.671875 20.414062 3.703125 20.21875 3.703125 L 15.390625 3.703125 C 14.890625 3.703125 14.523438 3.585938 14.296875 3.359375 C 14.078125 3.128906 13.96875 2.765625 13.96875 2.265625 L 13.96875 -2.484375 C 13.96875 -2.816406 13.90625 -3.070312 13.78125 -3.25 C 13.65625 -3.425781 13.425781 -3.515625 13.09375 -3.515625 L 13.0625 -3.515625 L 13.0625 -1.125 C 13.0625 -0.851562 13.023438 -0.625 12.953125 -0.4375 C 12.878906 -0.25 12.769531 -0.09375 12.625 0.03125 Z M 12.625 0.03125 "/></g></g></g><g fill="#ff2851" fill-opacity="1"><g transform="translate(187.571793, 268.21006)"><g><path d="M 15.578125 3.703125 L 2.328125 3.703125 C 1.828125 3.703125 1.460938 3.585938 1.234375 3.359375 C 1.015625 3.128906 0.90625 2.765625 0.90625 2.265625 L 0.90625 -1.4375 C 0.90625 -1.695312 0.941406 -1.921875 1.015625 -2.109375 C 1.085938 -2.296875 1.195312 -2.453125 1.34375 -2.578125 L 5.09375 -5.75 L 5.09375 -12.6875 L 2.328125 -12.6875 C 1.828125 -12.6875 1.460938 -12.800781 1.234375 -13.03125 C 1.015625 -13.257812 0.90625 -13.617188 0.90625 -14.109375 L 0.90625 -17.875 C 0.90625 -18.144531 0.941406 -18.375 1.015625 -18.5625 C 1.085938 -18.75 1.195312 -18.90625 1.34375 -19.03125 L 5.34375 -22.421875 C 5.445312 -22.503906 5.585938 -22.570312 5.765625 -22.625 C 5.941406 -22.675781 6.132812 -22.703125 6.34375 -22.703125 L 19.59375 -22.703125 C 20.082031 -22.703125 20.441406 -22.585938 20.671875 -22.359375 C 20.898438 -22.128906 21.015625 -21.765625 21.015625 -21.265625 L 21.015625 -17.5 C 21.015625 -17.238281 20.976562 -17.015625 20.90625 -16.828125 C 20.832031 -16.640625 20.722656 -16.484375 20.578125 -16.359375 L 16.890625 -13.25 L 16.890625 -6.25 L 19.59375 -6.25 C 20.082031 -6.25 20.441406 -6.132812 20.671875 -5.90625 C 20.898438 -5.675781 21.015625 -5.3125 21.015625 -4.8125 L 21.015625 -1.125 C 21.015625 -0.851562 20.976562 -0.625 20.90625 -0.4375 C 20.832031 -0.25 20.722656 -0.09375 20.578125 0.03125 L 16.546875 3.390625 C 16.460938 3.472656 16.332031 3.546875 16.15625 3.609375 C 15.976562 3.671875 15.785156 3.703125 15.578125 3.703125 Z M 6.34375 0 L 19.59375 0 C 19.988281 0 20.269531 -0.0859375 20.4375 -0.265625 C 20.613281 -0.441406 20.703125 -0.726562 20.703125 -1.125 L 20.703125 -4.8125 C 20.703125 -5.207031 20.613281 -5.492188 20.4375 -5.671875 C 20.269531 -5.847656 19.988281 -5.9375 19.59375 -5.9375 L 16.578125 -5.9375 L 16.578125 -16.390625 L 19.59375 -16.390625 C 19.988281 -16.390625 20.269531 -16.476562 20.4375 -16.65625 C 20.613281 -16.832031 20.703125 -17.113281 20.703125 -17.5 L 20.703125 -21.265625 C 20.703125 -21.660156 20.613281 -21.945312 20.4375 -22.125 C 20.269531 -22.300781 19.988281 -22.390625 19.59375 -22.390625 L 6.34375 -22.390625 C 5.945312 -22.390625 5.660156 -22.300781 5.484375 -22.125 C 5.304688 -21.945312 5.21875 -21.660156 5.21875 -21.265625 L 5.21875 -17.5 C 5.21875 -17.113281 5.304688 -16.832031 5.484375 -16.65625 C 5.660156 -16.476562 5.945312 -16.390625 6.34375 -16.390625 L 9.421875 -16.390625 L 9.421875 -5.9375 L 6.34375 -5.9375 C 5.945312 -5.9375 5.660156 -5.847656 5.484375 -5.671875 C 5.304688 -5.492188 5.21875 -5.207031 5.21875 -4.8125 L 5.21875 -1.125 C 5.21875 -0.726562 5.304688 -0.441406 5.484375 -0.265625 C 5.660156 -0.0859375 5.945312 0 6.34375 0 Z M 17.90625 -2.796875 L 8.015625 -2.796875 L 8.015625 -3.109375 L 12.84375 -3.109375 L 12.84375 -19.28125 L 8.015625 -19.28125 L 8.015625 -19.59375 L 17.90625 -19.59375 L 17.90625 -19.28125 L 13.15625 -19.28125 L 13.15625 -3.109375 L 17.90625 -3.109375 Z M 17.90625 -2.796875 "/></g></g></g><g fill="#ff2851" fill-opacity="1"><g transform="translate(209.481815, 268.21006)"><g><path d="M 12.28125 3.703125 L 7.25 3.703125 C 6.75 3.703125 6.382812 3.585938 6.15625 3.359375 C 5.925781 3.128906 5.8125 2.765625 5.8125 2.265625 L 5.8125 -12.6875 L 1.5625 -12.6875 C 1.0625 -12.6875 0.695312 -12.800781 0.46875 -13.03125 C 0.238281 -13.257812 0.125 -13.617188 0.125 -14.109375 L 0.125 -17.875 C 0.125 -18.144531 0.160156 -18.375 0.234375 -18.5625 C 0.304688 -18.75 0.414062 -18.90625 0.5625 -19.03125 L 4.578125 -22.421875 C 4.671875 -22.503906 4.804688 -22.570312 4.984375 -22.625 C 5.160156 -22.675781 5.351562 -22.703125 5.5625 -22.703125 L 21.984375 -22.703125 C 22.484375 -22.703125 22.84375 -22.585938 23.0625 -22.359375 C 23.289062 -22.128906 23.40625 -21.765625 23.40625 -21.265625 L 23.40625 -17.5 C 23.40625 -17.238281 23.367188 -17.015625 23.296875 -16.828125 C 23.234375 -16.640625 23.128906 -16.484375 22.984375 -16.359375 L 18.9375 -13 C 18.851562 -12.914062 18.722656 -12.84375 18.546875 -12.78125 C 18.367188 -12.71875 18.175781 -12.6875 17.96875 -12.6875 L 17.71875 -12.6875 L 17.71875 -1.125 C 17.71875 -0.851562 17.679688 -0.625 17.609375 -0.4375 C 17.535156 -0.25 17.425781 -0.09375 17.28125 0.03125 L 13.25 3.390625 C 13.164062 3.472656 13.035156 3.546875 12.859375 3.609375 C 12.679688 3.671875 12.488281 3.703125 12.28125 3.703125 Z M 16.296875 0 C 16.691406 0 16.972656 -0.0859375 17.140625 -0.265625 C 17.316406 -0.441406 17.40625 -0.726562 17.40625 -1.125 L 17.40625 -16.390625 L 21.984375 -16.390625 C 22.378906 -16.390625 22.664062 -16.476562 22.84375 -16.65625 C 23.019531 -16.832031 23.109375 -17.113281 23.109375 -17.5 L 23.109375 -21.265625 C 23.109375 -21.660156 23.019531 -21.945312 22.84375 -22.125 C 22.664062 -22.300781 22.378906 -22.390625 21.984375 -22.390625 L 5.5625 -22.390625 C 5.164062 -22.390625 4.878906 -22.300781 4.703125 -22.125 C 4.535156 -21.945312 4.453125 -21.660156 4.453125 -21.265625 L 4.453125 -17.5 C 4.453125 -17.113281 4.535156 -16.832031 4.703125 -16.65625 C 4.878906 -16.476562 5.164062 -16.390625 5.5625 -16.390625 L 10.140625 -16.390625 L 10.140625 -1.125 C 10.140625 -0.726562 10.226562 -0.441406 10.40625 -0.265625 C 10.582031 -0.0859375 10.863281 0 11.25 0 Z M 13.625 -2.796875 L 13.625 -19.28125 L 7.25 -19.28125 L 7.25 -19.59375 L 20.296875 -19.59375 L 20.296875 -19.28125 L 13.9375 -19.28125 L 13.9375 -2.796875 Z M 13.625 -2.796875 "/></g></g></g><g fill="#ff2851" fill-opacity="1"><g transform="translate(232.976808, 268.21006)"><g><path d="M 15.578125 3.703125 L 2.328125 3.703125 C 1.828125 3.703125 1.460938 3.585938 1.234375 3.359375 C 1.015625 3.128906 0.90625 2.765625 0.90625 2.265625 L 0.90625 -1.4375 C 0.90625 -1.695312 0.941406 -1.921875 1.015625 -2.109375 C 1.085938 -2.296875 1.195312 -2.453125 1.34375 -2.578125 L 5.09375 -5.75 L 5.09375 -12.6875 L 2.328125 -12.6875 C 1.828125 -12.6875 1.460938 -12.800781 1.234375 -13.03125 C 1.015625 -13.257812 0.90625 -13.617188 0.90625 -14.109375 L 0.90625 -17.875 C 0.90625 -18.144531 0.941406 -18.375 1.015625 -18.5625 C 1.085938 -18.75 1.195312 -18.90625 1.34375 -19.03125 L 5.34375 -22.421875 C 5.445312 -22.503906 5.585938 -22.570312 5.765625 -22.625 C 5.941406 -22.675781 6.132812 -22.703125 6.34375 -22.703125 L 19.59375 -22.703125 C 20.082031 -22.703125 20.441406 -22.585938 20.671875 -22.359375 C 20.898438 -22.128906 21.015625 -21.765625 21.015625 -21.265625 L 21.015625 -17.5 C 21.015625 -17.238281 20.976562 -17.015625 20.90625 -16.828125 C 20.832031 -16.640625 20.722656 -16.484375 20.578125 -16.359375 L 16.890625 -13.25 L 16.890625 -6.25 L 19.59375 -6.25 C 20.082031 -6.25 20.441406 -6.132812 20.671875 -5.90625 C 20.898438 -5.675781 21.015625 -5.3125 21.015625 -4.8125 L 21.015625 -1.125 C 21.015625 -0.851562 20.976562 -0.625 20.90625 -0.4375 C 20.832031 -0.25 20.722656 -0.09375 20.578125 0.03125 L 16.546875 3.390625 C 16.460938 3.472656 16.332031 3.546875 16.15625 3.609375 C 15.976562 3.671875 15.785156 3.703125 15.578125 3.703125 Z M 6.34375 0 L 19.59375 0 C 19.988281 0 20.269531 -0.0859375 20.4375 -0.265625 C 20.613281 -0.441406 20.703125 -0.726562 20.703125 -1.125 L 20.703125 -4.8125 C 20.703125 -5.207031 20.613281 -5.492188 20.4375 -5.671875 C 20.269531 -5.847656 19.988281 -5.9375 19.59375 -5.9375 L 16.578125 -5.9375 L 16.578125 -16.390625 L 19.59375 -16.390625 C 19.988281 -16.390625 20.269531 -16.476562 20.4375 -16.65625 C 20.613281 -16.832031 20.703125 -17.113281 20.703125 -17.5 L 20.703125 -21.265625 C 20.703125 -21.660156 20.613281 -21.945312 20.4375 -22.125 C 20.269531 -22.300781 19.988281 -22.390625 19.59375 -22.390625 L 6.34375 -22.390625 C 5.945312 -22.390625 5.660156 -22.300781 5.484375 -22.125 C 5.304688 -21.945312 5.21875 -21.660156 5.21875 -21.265625 L 5.21875 -17.5 C 5.21875 -17.113281 5.304688 -16.832031 5.484375 -16.65625 C 5.660156 -16.476562 5.945312 -16.390625 6.34375 -16.390625 L 9.421875 -16.390625 L 9.421875 -5.9375 L 6.34375 -5.9375 C 5.945312 -5.9375 5.660156 -5.847656 5.484375 -5.671875 C 5.304688 -5.492188 5.21875 -5.207031 5.21875 -4.8125 L 5.21875 -1.125 C 5.21875 -0.726562 5.304688 -0.441406 5.484375 -0.265625 C 5.660156 -0.0859375 5.945312 0 6.34375 0 Z M 17.90625 -2.796875 L 8.015625 -2.796875 L 8.015625 -3.109375 L 12.84375 -3.109375 L 12.84375 -19.28125 L 8.015625 -19.28125 L 8.015625 -19.59375 L 17.90625 -19.59375 L 17.90625 -19.28125 L 13.15625 -19.28125 L 13.15625 -3.109375 L 17.90625 -3.109375 Z M 17.90625 -2.796875 "/></g></g></g><g fill="#ff2851" fill-opacity="1"><g transform="translate(254.88683, 268.21006)"><g><path d="M 16.609375 3.703125 L 9.015625 3.703125 C 6.296875 3.703125 4.289062 2.992188 3 1.578125 C 1.707031 0.171875 1.0625 -1.648438 1.0625 -3.890625 L 1.0625 -12.625 C 1.0625 -13.757812 1.222656 -14.75 1.546875 -15.59375 C 1.878906 -16.4375 2.367188 -17.132812 3.015625 -17.6875 L 7.0625 -21.078125 C 7.695312 -21.617188 8.507812 -22.023438 9.5 -22.296875 C 10.5 -22.566406 11.675781 -22.703125 13.03125 -22.703125 L 20.609375 -22.703125 C 21.109375 -22.703125 21.472656 -22.585938 21.703125 -22.359375 C 21.929688 -22.128906 22.046875 -21.765625 22.046875 -21.265625 L 22.046875 -17.5 C 22.046875 -17.238281 22.007812 -17.015625 21.9375 -16.828125 C 21.863281 -16.640625 21.753906 -16.484375 21.609375 -16.359375 L 17.5625 -13 C 17.476562 -12.914062 17.347656 -12.84375 17.171875 -12.78125 C 17.003906 -12.71875 16.816406 -12.6875 16.609375 -12.6875 L 12.78125 -12.6875 L 12.78125 -7.4375 C 12.78125 -7 12.914062 -6.691406 13.1875 -6.515625 C 13.457031 -6.335938 13.847656 -6.25 14.359375 -6.25 L 20.609375 -6.25 C 21.109375 -6.25 21.472656 -6.132812 21.703125 -5.90625 C 21.929688 -5.675781 22.046875 -5.3125 22.046875 -4.8125 L 22.046875 -1.125 C 22.046875 -0.851562 22.007812 -0.625 21.9375 -0.4375 C 21.863281 -0.25 21.753906 -0.09375 21.609375 0.03125 L 17.5625 3.390625 C 17.476562 3.472656 17.347656 3.546875 17.171875 3.609375 C 17.003906 3.671875 16.816406 3.703125 16.609375 3.703125 Z M 20.609375 0 C 21.003906 0 21.289062 -0.0859375 21.46875 -0.265625 C 21.644531 -0.441406 21.734375 -0.726562 21.734375 -1.125 L 21.734375 -4.8125 C 21.734375 -5.207031 21.644531 -5.492188 21.46875 -5.671875 C 21.289062 -5.847656 21.003906 -5.9375 20.609375 -5.9375 L 14.359375 -5.9375 C 13.722656 -5.9375 13.25 -6.054688 12.9375 -6.296875 C 12.625 -6.535156 12.46875 -6.914062 12.46875 -7.4375 L 12.46875 -14.828125 C 12.46875 -15.347656 12.625 -15.738281 12.9375 -16 C 13.25 -16.257812 13.722656 -16.390625 14.359375 -16.390625 L 20.609375 -16.390625 C 21.003906 -16.390625 21.289062 -16.476562 21.46875 -16.65625 C 21.644531 -16.832031 21.734375 -17.113281 21.734375 -17.5 L 21.734375 -21.265625 C 21.734375 -21.660156 21.644531 -21.945312 21.46875 -22.125 C 21.289062 -22.300781 21.003906 -22.390625 20.609375 -22.390625 L 13.03125 -22.390625 C 10.4375 -22.390625 8.507812 -21.863281 7.25 -20.8125 C 6 -19.769531 5.375 -18.171875 5.375 -16.015625 L 5.375 -6.34375 C 5.375 -4.1875 6 -2.585938 7.25 -1.546875 C 8.507812 -0.515625 10.4375 0 13.03125 0 Z M 18.90625 -3.109375 L 18.90625 -2.796875 L 13.71875 -2.796875 C 11.707031 -2.796875 10.375 -3.109375 9.71875 -3.734375 C 9.0625 -4.359375 8.734375 -5.382812 8.734375 -6.8125 L 8.734375 -15.515625 C 8.734375 -16.984375 9.066406 -18.03125 9.734375 -18.65625 C 10.398438 -19.28125 11.726562 -19.59375 13.71875 -19.59375 L 18.90625 -19.59375 L 18.90625 -19.28125 L 13.71875 -19.28125 C 11.882812 -19.28125 10.644531 -18.992188 10 -18.421875 C 9.363281 -17.847656 9.046875 -16.878906 9.046875 -15.515625 L 9.046875 -6.8125 C 9.046875 -5.457031 9.351562 -4.5 9.96875 -3.9375 C 10.59375 -3.382812 11.84375 -3.109375 13.71875 -3.109375 Z M 18.90625 -3.109375 "/></g></g></g><g fill="#ff2851" fill-opacity="1"><g transform="translate(135.352883, 285.213812)"><g><path d="M 2.1875 -5.484375 L 6.359375 -5.484375 C 6.328125 -5.265625 6.296875 -5.078125 6.265625 -4.921875 C 6.242188 -4.773438 6.222656 -4.664062 6.203125 -4.59375 C 6.160156 -4.375 6.085938 -4.21875 5.984375 -4.125 C 5.867188 -4.03125 5.675781 -3.96875 5.40625 -3.9375 C 5.332031 -3.9375 5.226562 -3.9375 5.09375 -3.9375 C 4.957031 -3.9375 4.78125 -3.9375 4.5625 -3.9375 L 2.578125 -3.9375 C 2.503906 -3.9375 2.4375 -3.9375 2.375 -3.9375 C 2.320312 -3.9375 2.285156 -3.925781 2.265625 -3.90625 C 2.222656 -3.90625 2.191406 -3.894531 2.171875 -3.875 C 2.148438 -3.851562 2.128906 -3.8125 2.109375 -3.75 C 2.109375 -3.707031 2.097656 -3.628906 2.078125 -3.515625 L 1.796875 -1.5625 L 5.8125 -1.5625 C 5.78125 -1.320312 5.75 -1.125 5.71875 -0.96875 C 5.695312 -0.820312 5.675781 -0.707031 5.65625 -0.625 C 5.601562 -0.414062 5.523438 -0.265625 5.421875 -0.171875 C 5.316406 -0.0976562 5.15625 -0.046875 4.9375 -0.015625 C 4.851562 -0.015625 4.738281 -0.0078125 4.59375 0 C 4.445312 0 4.257812 0 4.03125 0 L 1.546875 0 C 1.285156 0 1.066406 -0.00390625 0.890625 -0.015625 C 0.722656 -0.0234375 0.597656 -0.0351562 0.515625 -0.046875 C 0.359375 -0.0859375 0.25 -0.15625 0.1875 -0.25 C 0.132812 -0.332031 0.109375 -0.445312 0.109375 -0.59375 L 0.109375 -0.671875 C 0.117188 -0.753906 0.128906 -0.867188 0.140625 -1.015625 C 0.160156 -1.160156 0.1875 -1.34375 0.21875 -1.5625 C 0.238281 -1.71875 0.265625 -1.90625 0.296875 -2.125 C 0.328125 -2.351562 0.363281 -2.613281 0.40625 -2.90625 C 0.445312 -3.21875 0.476562 -3.453125 0.5 -3.609375 C 0.53125 -3.773438 0.546875 -3.882812 0.546875 -3.9375 C 0.617188 -4.375 0.664062 -4.660156 0.6875 -4.796875 C 0.75 -5.035156 0.828125 -5.195312 0.921875 -5.28125 C 1.023438 -5.375 1.171875 -5.4375 1.359375 -5.46875 C 1.441406 -5.476562 1.550781 -5.484375 1.6875 -5.484375 C 1.820312 -5.484375 1.988281 -5.484375 2.1875 -5.484375 Z M 2.1875 -5.484375 "/></g></g></g><g fill="#ff2851" fill-opacity="1"><g transform="translate(141.648688, 285.213812)"><g><path d="M 1.203125 -7.765625 C 1.710938 -7.765625 2.046875 -7.753906 2.203125 -7.734375 C 2.410156 -7.703125 2.546875 -7.628906 2.609375 -7.515625 C 2.660156 -7.460938 2.6875 -7.359375 2.6875 -7.203125 C 2.6875 -7.179688 2.6875 -7.15625 2.6875 -7.125 C 2.6875 -7.101562 2.6875 -7.082031 2.6875 -7.0625 C 2.6875 -6.988281 2.671875 -6.878906 2.640625 -6.734375 C 2.617188 -6.597656 2.59375 -6.421875 2.5625 -6.203125 L 2.453125 -5.5 L 5.078125 -5.5 C 5.472656 -5.5 5.738281 -5.488281 5.875 -5.46875 C 6.050781 -5.4375 6.175781 -5.378906 6.25 -5.296875 C 6.3125 -5.234375 6.34375 -5.097656 6.34375 -4.890625 C 6.34375 -4.734375 6.3125 -4.414062 6.25 -3.9375 L 5.921875 -1.5625 C 5.890625 -1.351562 5.863281 -1.175781 5.84375 -1.03125 C 5.820312 -0.894531 5.804688 -0.789062 5.796875 -0.71875 C 5.753906 -0.519531 5.691406 -0.375 5.609375 -0.28125 C 5.523438 -0.164062 5.375 -0.0859375 5.15625 -0.046875 C 5 -0.0234375 4.691406 -0.015625 4.234375 -0.015625 L 4.125 -0.015625 L 4.34375 -1.5625 L 4.671875 -3.9375 L 2.234375 -3.9375 L 1.90625 -1.5625 C 1.84375 -1.09375 1.785156 -0.78125 1.734375 -0.625 C 1.679688 -0.40625 1.59375 -0.253906 1.46875 -0.171875 C 1.382812 -0.0976562 1.242188 -0.0507812 1.046875 -0.03125 C 0.972656 -0.0195312 0.867188 -0.015625 0.734375 -0.015625 C 0.597656 -0.015625 0.421875 -0.015625 0.203125 -0.015625 L 0.109375 -0.015625 L 0.328125 -1.5625 L 0.8125 -4.953125 Z M 1.203125 -7.765625 "/></g></g></g><g fill="#ff2851" fill-opacity="1"><g transform="translate(148.110755, 285.213812)"><g><path d="M 0.765625 -5.5 C 1.253906 -5.5 1.570312 -5.488281 1.71875 -5.46875 C 1.945312 -5.4375 2.09375 -5.367188 2.15625 -5.265625 C 2.207031 -5.203125 2.234375 -5.09375 2.234375 -4.9375 C 2.234375 -4.90625 2.234375 -4.867188 2.234375 -4.828125 C 2.234375 -4.785156 2.226562 -4.742188 2.21875 -4.703125 C 2.21875 -4.648438 2.207031 -4.5625 2.1875 -4.4375 C 2.175781 -4.3125 2.15625 -4.144531 2.125 -3.9375 L 1.84375 -1.953125 C 1.84375 -1.859375 1.832031 -1.785156 1.8125 -1.734375 C 1.8125 -1.710938 1.8125 -1.691406 1.8125 -1.671875 C 1.820312 -1.660156 1.828125 -1.644531 1.828125 -1.625 C 1.835938 -1.625 1.847656 -1.617188 1.859375 -1.609375 C 1.878906 -1.597656 1.894531 -1.585938 1.90625 -1.578125 C 1.9375 -1.566406 2.03125 -1.5625 2.1875 -1.5625 L 4.234375 -1.5625 L 4.5625 -3.9375 L 4.78125 -5.5 C 5.332031 -5.5 5.671875 -5.484375 5.796875 -5.453125 C 5.984375 -5.429688 6.109375 -5.359375 6.171875 -5.234375 C 6.210938 -5.160156 6.234375 -5.046875 6.234375 -4.890625 L 6.234375 -4.734375 C 6.222656 -4.609375 6.191406 -4.34375 6.140625 -3.9375 L 5.8125 -1.5625 C 5.78125 -1.363281 5.753906 -1.195312 5.734375 -1.0625 C 5.710938 -0.925781 5.695312 -0.820312 5.6875 -0.75 C 5.664062 -0.644531 5.640625 -0.550781 5.609375 -0.46875 C 5.578125 -0.394531 5.539062 -0.332031 5.5 -0.28125 C 5.425781 -0.164062 5.273438 -0.0859375 5.046875 -0.046875 C 4.972656 -0.0351562 4.867188 -0.0234375 4.734375 -0.015625 C 4.609375 -0.00390625 4.445312 0 4.25 0 L 1.328125 0 C 1.140625 0 0.984375 -0.00390625 0.859375 -0.015625 C 0.734375 -0.0234375 0.628906 -0.0351562 0.546875 -0.046875 C 0.359375 -0.078125 0.234375 -0.148438 0.171875 -0.265625 C 0.128906 -0.359375 0.109375 -0.46875 0.109375 -0.59375 C 0.109375 -0.632812 0.109375 -0.671875 0.109375 -0.703125 C 0.117188 -0.742188 0.125 -0.78125 0.125 -0.8125 C 0.132812 -0.96875 0.164062 -1.21875 0.21875 -1.5625 C 0.238281 -1.707031 0.265625 -1.882812 0.296875 -2.09375 C 0.328125 -2.3125 0.363281 -2.554688 0.40625 -2.828125 C 0.445312 -3.109375 0.476562 -3.335938 0.5 -3.515625 C 0.53125 -3.691406 0.546875 -3.832031 0.546875 -3.9375 Z M 0.765625 -5.5 "/></g></g></g><g fill="#ff2851" fill-opacity="1"><g transform="translate(154.450896, 285.213812)"><g><path d="M 0.75 -5.5 L 1.46875 -5.5 C 1.789062 -5.476562 2 -5.421875 2.09375 -5.328125 C 2.175781 -5.265625 2.21875 -5.132812 2.21875 -4.9375 L 2.21875 -4.859375 C 2.21875 -4.753906 2.179688 -4.445312 2.109375 -3.9375 L 1.78125 -1.546875 L 3.796875 -1.546875 C 3.953125 -1.546875 4.050781 -1.554688 4.09375 -1.578125 C 4.144531 -1.597656 4.179688 -1.628906 4.203125 -1.671875 C 4.222656 -1.691406 4.238281 -1.722656 4.25 -1.765625 C 4.257812 -1.816406 4.269531 -1.878906 4.28125 -1.953125 L 4.546875 -3.9375 L 4.78125 -5.5 C 5.019531 -5.5 5.21875 -5.5 5.375 -5.5 C 5.53125 -5.5 5.644531 -5.488281 5.71875 -5.46875 C 5.957031 -5.4375 6.109375 -5.351562 6.171875 -5.21875 C 6.203125 -5.15625 6.21875 -5.046875 6.21875 -4.890625 C 6.21875 -4.835938 6.21875 -4.785156 6.21875 -4.734375 C 6.21875 -4.679688 6.210938 -4.617188 6.203125 -4.546875 C 6.191406 -4.492188 6.179688 -4.414062 6.171875 -4.3125 C 6.160156 -4.21875 6.144531 -4.09375 6.125 -3.9375 L 5.796875 -1.546875 L 5.578125 0 L 5.46875 0.71875 C 5.4375 0.9375 5.410156 1.113281 5.390625 1.25 C 5.367188 1.394531 5.347656 1.507812 5.328125 1.59375 C 5.285156 1.789062 5.21875 1.941406 5.125 2.046875 C 5.019531 2.160156 4.835938 2.234375 4.578125 2.265625 C 4.503906 2.265625 4.390625 2.265625 4.234375 2.265625 C 4.085938 2.273438 3.898438 2.28125 3.671875 2.28125 L -0.328125 2.28125 C -0.285156 2.0625 -0.25 1.878906 -0.21875 1.734375 C -0.1875 1.597656 -0.160156 1.492188 -0.140625 1.421875 C -0.0546875 1.171875 0.0351562 1 0.140625 0.90625 C 0.253906 0.820312 0.429688 0.769531 0.671875 0.75 C 0.734375 0.726562 0.820312 0.71875 0.9375 0.71875 C 1.0625 0.71875 1.203125 0.71875 1.359375 0.71875 L 3.28125 0.71875 C 3.382812 0.71875 3.472656 0.710938 3.546875 0.703125 C 3.617188 0.703125 3.671875 0.703125 3.703125 0.703125 C 3.785156 0.679688 3.847656 0.640625 3.890625 0.578125 C 3.898438 0.546875 3.910156 0.515625 3.921875 0.484375 C 3.929688 0.453125 3.9375 0.410156 3.9375 0.359375 C 3.957031 0.328125 3.96875 0.28125 3.96875 0.21875 C 3.976562 0.164062 3.988281 0.09375 4 0 L 1.453125 0 C 1.023438 0 0.738281 -0.0078125 0.59375 -0.03125 C 0.382812 -0.0703125 0.25 -0.132812 0.1875 -0.21875 C 0.125 -0.3125 0.09375 -0.441406 0.09375 -0.609375 C 0.09375 -0.617188 0.09375 -0.632812 0.09375 -0.65625 C 0.101562 -0.675781 0.109375 -0.691406 0.109375 -0.703125 C 0.109375 -0.773438 0.113281 -0.878906 0.125 -1.015625 C 0.144531 -1.160156 0.171875 -1.335938 0.203125 -1.546875 L 0.53125 -3.9375 Z M 0.75 -5.5 "/></g></g></g><g fill="#ff2851" fill-opacity="1"><g transform="translate(160.779952, 285.213812)"><g><path d="M 2.375 -5.5 L 4.78125 -5.5 C 4.976562 -5.5 5.144531 -5.5 5.28125 -5.5 C 5.414062 -5.5 5.515625 -5.492188 5.578125 -5.484375 C 5.828125 -5.460938 5.992188 -5.414062 6.078125 -5.34375 C 6.179688 -5.269531 6.234375 -5.117188 6.234375 -4.890625 C 6.234375 -4.867188 6.234375 -4.835938 6.234375 -4.796875 C 6.234375 -4.753906 6.226562 -4.707031 6.21875 -4.65625 C 6.21875 -4.59375 6.207031 -4.5 6.1875 -4.375 C 6.175781 -4.257812 6.160156 -4.113281 6.140625 -3.9375 L 6.078125 -3.515625 C 6.046875 -3.296875 6.015625 -3.113281 5.984375 -2.96875 C 5.960938 -2.832031 5.941406 -2.722656 5.921875 -2.640625 C 5.878906 -2.441406 5.8125 -2.289062 5.71875 -2.1875 C 5.601562 -2.082031 5.441406 -2.019531 5.234375 -2 C 5.097656 -1.976562 4.832031 -1.96875 4.4375 -1.96875 L 2.109375 -1.96875 C 2.023438 -1.96875 1.972656 -1.960938 1.953125 -1.953125 C 1.910156 -1.953125 1.878906 -1.941406 1.859375 -1.921875 C 1.847656 -1.910156 1.832031 -1.867188 1.8125 -1.796875 C 1.8125 -1.765625 1.800781 -1.6875 1.78125 -1.5625 L 4.21875 -1.5625 C 4.65625 -1.5625 4.929688 -1.550781 5.046875 -1.53125 C 5.222656 -1.507812 5.347656 -1.453125 5.421875 -1.359375 C 5.503906 -1.273438 5.550781 -1.113281 5.5625 -0.875 C 5.570312 -0.8125 5.578125 -0.722656 5.578125 -0.609375 C 5.578125 -0.492188 5.578125 -0.351562 5.578125 -0.1875 L 5.578125 -0.015625 L 1.390625 -0.015625 C 1.171875 -0.015625 0.988281 -0.0195312 0.84375 -0.03125 C 0.695312 -0.0390625 0.585938 -0.0507812 0.515625 -0.0625 C 0.359375 -0.101562 0.242188 -0.171875 0.171875 -0.265625 C 0.128906 -0.347656 0.109375 -0.460938 0.109375 -0.609375 L 0.109375 -0.6875 C 0.117188 -0.820312 0.148438 -1.117188 0.203125 -1.578125 L 0.546875 -3.9375 C 0.578125 -4.144531 0.601562 -4.3125 0.625 -4.4375 C 0.65625 -4.5625 0.671875 -4.660156 0.671875 -4.734375 C 0.734375 -5.003906 0.8125 -5.179688 0.90625 -5.265625 C 1.019531 -5.367188 1.175781 -5.4375 1.375 -5.46875 C 1.53125 -5.488281 1.863281 -5.5 2.375 -5.5 Z M 2.390625 -3.9375 C 2.285156 -3.9375 2.222656 -3.929688 2.203125 -3.921875 C 2.191406 -3.921875 2.171875 -3.90625 2.140625 -3.875 C 2.128906 -3.863281 2.117188 -3.847656 2.109375 -3.828125 C 2.109375 -3.816406 2.101562 -3.800781 2.09375 -3.78125 C 2.09375 -3.75 2.082031 -3.664062 2.0625 -3.53125 L 4.359375 -3.53125 C 4.410156 -3.539062 4.453125 -3.5625 4.484375 -3.59375 C 4.503906 -3.613281 4.515625 -3.640625 4.515625 -3.671875 C 4.523438 -3.722656 4.535156 -3.8125 4.546875 -3.9375 Z M 2.03125 -6.21875 L 2.953125 -7.828125 C 3.035156 -7.953125 3.101562 -8.039062 3.15625 -8.09375 C 3.207031 -8.144531 3.257812 -8.179688 3.3125 -8.203125 C 3.332031 -8.222656 3.359375 -8.234375 3.390625 -8.234375 C 3.421875 -8.242188 3.453125 -8.25 3.484375 -8.25 C 3.503906 -8.257812 3.535156 -8.265625 3.578125 -8.265625 C 3.617188 -8.265625 3.671875 -8.265625 3.734375 -8.265625 C 3.785156 -8.265625 3.828125 -8.265625 3.859375 -8.265625 C 3.890625 -8.265625 3.921875 -8.257812 3.953125 -8.25 C 4.035156 -8.238281 4.09375 -8.222656 4.125 -8.203125 C 4.164062 -8.160156 4.207031 -8.109375 4.25 -8.046875 C 4.257812 -8.015625 4.269531 -7.976562 4.28125 -7.9375 C 4.300781 -7.90625 4.316406 -7.859375 4.328125 -7.796875 L 4.53125 -7.15625 L 4.8125 -6.21875 L 4.5625 -6.21875 C 4.488281 -6.21875 4.425781 -6.21875 4.375 -6.21875 C 4.332031 -6.21875 4.289062 -6.222656 4.25 -6.234375 C 4.15625 -6.253906 4.085938 -6.289062 4.046875 -6.34375 C 4.023438 -6.363281 3.992188 -6.398438 3.953125 -6.453125 C 3.941406 -6.472656 3.925781 -6.503906 3.90625 -6.546875 C 3.894531 -6.597656 3.875 -6.65625 3.84375 -6.71875 L 3.625 -7.4375 L 3.21875 -6.703125 C 3.175781 -6.628906 3.140625 -6.566406 3.109375 -6.515625 C 3.078125 -6.472656 3.050781 -6.441406 3.03125 -6.421875 C 2.976562 -6.347656 2.910156 -6.296875 2.828125 -6.265625 C 2.773438 -6.265625 2.6875 -6.253906 2.5625 -6.234375 C 2.519531 -6.222656 2.453125 -6.21875 2.359375 -6.21875 C 2.273438 -6.21875 2.164062 -6.21875 2.03125 -6.21875 Z M 2.03125 -6.21875 "/></g></g></g><g fill="#ff2851" fill-opacity="1"><g transform="translate(167.120093, 285.213812)"><g><path d="M 0.671875 -3.921875 C 0.703125 -4.179688 0.726562 -4.390625 0.75 -4.546875 C 0.78125 -4.703125 0.800781 -4.816406 0.8125 -4.890625 C 0.882812 -5.109375 0.972656 -5.253906 1.078125 -5.328125 C 1.171875 -5.390625 1.304688 -5.4375 1.484375 -5.46875 C 1.546875 -5.476562 1.628906 -5.484375 1.734375 -5.484375 C 1.847656 -5.484375 1.972656 -5.484375 2.109375 -5.484375 L 5.234375 -5.484375 C 5.378906 -5.484375 5.503906 -5.484375 5.609375 -5.484375 C 5.710938 -5.484375 5.800781 -5.476562 5.875 -5.46875 C 6.03125 -5.4375 6.132812 -5.394531 6.1875 -5.34375 C 6.28125 -5.269531 6.332031 -5.140625 6.34375 -4.953125 L 6.34375 -4.875 C 6.34375 -4.726562 6.3125 -4.410156 6.25 -3.921875 L 6.1875 -3.515625 L 5.96875 -1.953125 L 5.921875 -1.546875 C 5.890625 -1.328125 5.863281 -1.144531 5.84375 -1 C 5.820312 -0.851562 5.796875 -0.742188 5.765625 -0.671875 C 5.742188 -0.578125 5.71875 -0.492188 5.6875 -0.421875 C 5.664062 -0.359375 5.628906 -0.300781 5.578125 -0.25 C 5.492188 -0.15625 5.359375 -0.0859375 5.171875 -0.046875 C 5.097656 -0.0351562 4.972656 -0.0234375 4.796875 -0.015625 C 4.617188 -0.00390625 4.394531 0 4.125 0 L 4.34375 -1.546875 L 4.390625 -1.953125 L 4.625 -3.515625 L 4.671875 -3.921875 L 2.640625 -3.921875 C 2.617188 -3.929688 2.59375 -3.9375 2.5625 -3.9375 C 2.539062 -3.9375 2.519531 -3.9375 2.5 -3.9375 C 2.445312 -3.9375 2.414062 -3.929688 2.40625 -3.921875 C 2.363281 -3.921875 2.328125 -3.910156 2.296875 -3.890625 C 2.265625 -3.859375 2.238281 -3.8125 2.21875 -3.75 C 2.21875 -3.726562 2.207031 -3.648438 2.1875 -3.515625 L 1.953125 -1.953125 L 1.90625 -1.546875 C 1.875 -1.304688 1.84375 -1.101562 1.8125 -0.9375 C 1.78125 -0.78125 1.753906 -0.664062 1.734375 -0.59375 C 1.679688 -0.414062 1.597656 -0.273438 1.484375 -0.171875 C 1.390625 -0.109375 1.242188 -0.0546875 1.046875 -0.015625 C 0.972656 -0.015625 0.859375 -0.0078125 0.703125 0 C 0.546875 0 0.347656 0 0.109375 0 L 0.328125 -1.546875 L 0.390625 -1.953125 L 0.609375 -3.515625 Z M 0.671875 -3.921875 "/></g></g></g><g fill="#ff2851" fill-opacity="1"><g transform="translate(173.571075, 285.213812)"><g/></g></g><g fill="#ff2851" fill-opacity="1"><g transform="translate(176.896324, 285.213812)"><g><path d="M 0.671875 -3.9375 C 0.734375 -4.351562 0.773438 -4.628906 0.796875 -4.765625 C 0.847656 -5.003906 0.921875 -5.171875 1.015625 -5.265625 C 1.109375 -5.367188 1.242188 -5.429688 1.421875 -5.453125 C 1.578125 -5.472656 1.84375 -5.484375 2.21875 -5.484375 L 6.46875 -5.484375 C 6.4375 -5.253906 6.40625 -5.066406 6.375 -4.921875 C 6.351562 -4.773438 6.332031 -4.660156 6.3125 -4.578125 C 6.25 -4.359375 6.171875 -4.207031 6.078125 -4.125 C 5.972656 -4.03125 5.804688 -3.972656 5.578125 -3.953125 C 5.503906 -3.941406 5.390625 -3.9375 5.234375 -3.9375 C 5.085938 -3.9375 4.894531 -3.9375 4.65625 -3.9375 L 2.78125 -3.9375 C 2.695312 -3.9375 2.628906 -3.9375 2.578125 -3.9375 C 2.523438 -3.9375 2.484375 -3.929688 2.453125 -3.921875 C 2.398438 -3.921875 2.351562 -3.90625 2.3125 -3.875 C 2.28125 -3.863281 2.253906 -3.820312 2.234375 -3.75 C 2.222656 -3.726562 2.210938 -3.691406 2.203125 -3.640625 C 2.191406 -3.597656 2.179688 -3.539062 2.171875 -3.46875 L 1.90625 -1.546875 C 1.851562 -1.140625 1.804688 -0.859375 1.765625 -0.703125 C 1.742188 -0.609375 1.71875 -0.519531 1.6875 -0.4375 C 1.664062 -0.363281 1.628906 -0.300781 1.578125 -0.25 C 1.503906 -0.164062 1.390625 -0.101562 1.234375 -0.0625 C 1.160156 -0.0390625 1.03125 -0.0234375 0.84375 -0.015625 C 0.65625 -0.00390625 0.410156 0 0.109375 0 Z M 0.671875 -3.9375 "/></g></g></g><g fill="#ff2851" fill-opacity="1"><g transform="translate(183.30297, 285.213812)"><g><path d="M 2.375 -5.5 L 4.78125 -5.5 C 4.976562 -5.5 5.144531 -5.5 5.28125 -5.5 C 5.414062 -5.5 5.515625 -5.492188 5.578125 -5.484375 C 5.828125 -5.460938 5.992188 -5.414062 6.078125 -5.34375 C 6.179688 -5.269531 6.234375 -5.117188 6.234375 -4.890625 C 6.234375 -4.867188 6.234375 -4.835938 6.234375 -4.796875 C 6.234375 -4.753906 6.226562 -4.707031 6.21875 -4.65625 C 6.21875 -4.59375 6.207031 -4.5 6.1875 -4.375 C 6.175781 -4.257812 6.160156 -4.113281 6.140625 -3.9375 L 6.078125 -3.515625 C 6.046875 -3.296875 6.015625 -3.113281 5.984375 -2.96875 C 5.960938 -2.832031 5.941406 -2.722656 5.921875 -2.640625 C 5.878906 -2.441406 5.8125 -2.289062 5.71875 -2.1875 C 5.601562 -2.082031 5.441406 -2.019531 5.234375 -2 C 5.097656 -1.976562 4.832031 -1.96875 4.4375 -1.96875 L 2.109375 -1.96875 C 2.023438 -1.96875 1.972656 -1.960938 1.953125 -1.953125 C 1.910156 -1.953125 1.878906 -1.941406 1.859375 -1.921875 C 1.847656 -1.910156 1.832031 -1.867188 1.8125 -1.796875 C 1.8125 -1.765625 1.800781 -1.6875 1.78125 -1.5625 L 4.21875 -1.5625 C 4.65625 -1.5625 4.929688 -1.550781 5.046875 -1.53125 C 5.222656 -1.507812 5.347656 -1.453125 5.421875 -1.359375 C 5.503906 -1.273438 5.550781 -1.113281 5.5625 -0.875 C 5.570312 -0.8125 5.578125 -0.722656 5.578125 -0.609375 C 5.578125 -0.492188 5.578125 -0.351562 5.578125 -0.1875 L 5.578125 -0.015625 L 1.390625 -0.015625 C 1.171875 -0.015625 0.988281 -0.0195312 0.84375 -0.03125 C 0.695312 -0.0390625 0.585938 -0.0507812 0.515625 -0.0625 C 0.359375 -0.101562 0.242188 -0.171875 0.171875 -0.265625 C 0.128906 -0.347656 0.109375 -0.460938 0.109375 -0.609375 L 0.109375 -0.6875 C 0.117188 -0.820312 0.148438 -1.117188 0.203125 -1.578125 L 0.546875 -3.9375 C 0.578125 -4.144531 0.601562 -4.3125 0.625 -4.4375 C 0.65625 -4.5625 0.671875 -4.660156 0.671875 -4.734375 C 0.734375 -5.003906 0.8125 -5.179688 0.90625 -5.265625 C 1.019531 -5.367188 1.175781 -5.4375 1.375 -5.46875 C 1.53125 -5.488281 1.863281 -5.5 2.375 -5.5 Z M 2.390625 -3.9375 C 2.285156 -3.9375 2.222656 -3.929688 2.203125 -3.921875 C 2.191406 -3.921875 2.171875 -3.90625 2.140625 -3.875 C 2.128906 -3.863281 2.117188 -3.847656 2.109375 -3.828125 C 2.109375 -3.816406 2.101562 -3.800781 2.09375 -3.78125 C 2.09375 -3.75 2.082031 -3.664062 2.0625 -3.53125 L 4.359375 -3.53125 C 4.410156 -3.539062 4.453125 -3.5625 4.484375 -3.59375 C 4.503906 -3.613281 4.515625 -3.640625 4.515625 -3.671875 C 4.523438 -3.722656 4.535156 -3.8125 4.546875 -3.9375 Z M 2.390625 -3.9375 "/></g></g></g><g fill="#ff2851" fill-opacity="1"><g transform="translate(189.643111, 285.213812)"><g><path d="M 0.4375 -5.5 C 0.675781 -5.5 0.875 -5.5 1.03125 -5.5 C 1.1875 -5.5 1.300781 -5.488281 1.375 -5.46875 C 1.613281 -5.445312 1.78125 -5.382812 1.875 -5.28125 C 1.988281 -5.175781 2.066406 -4.988281 2.109375 -4.71875 C 2.128906 -4.65625 2.148438 -4.554688 2.171875 -4.421875 C 2.191406 -4.296875 2.210938 -4.132812 2.234375 -3.9375 L 2.5625 -1.5625 L 3.515625 -1.5625 C 3.585938 -1.5625 3.644531 -1.5625 3.6875 -1.5625 C 3.726562 -1.570312 3.757812 -1.578125 3.78125 -1.578125 C 3.8125 -1.578125 3.835938 -1.59375 3.859375 -1.625 C 3.890625 -1.644531 3.90625 -1.671875 3.90625 -1.703125 C 3.925781 -1.742188 3.941406 -1.828125 3.953125 -1.953125 L 4.1875 -3.640625 L 4.453125 -5.5 L 4.671875 -5.5 C 4.828125 -5.5 4.957031 -5.5 5.0625 -5.5 C 5.175781 -5.5 5.265625 -5.488281 5.328125 -5.46875 C 5.566406 -5.445312 5.722656 -5.394531 5.796875 -5.3125 C 5.867188 -5.238281 5.90625 -5.097656 5.90625 -4.890625 L 5.90625 -4.8125 C 5.90625 -4.6875 5.875 -4.390625 5.8125 -3.921875 L 5.46875 -1.5625 C 5.4375 -1.332031 5.40625 -1.144531 5.375 -1 C 5.351562 -0.851562 5.332031 -0.738281 5.3125 -0.65625 C 5.269531 -0.457031 5.207031 -0.316406 5.125 -0.234375 C 5.03125 -0.140625 4.898438 -0.078125 4.734375 -0.046875 C 4.660156 -0.0351562 4.546875 -0.0234375 4.390625 -0.015625 C 4.242188 -0.00390625 4.054688 0 3.828125 0 L 2.796875 0 C 2.503906 0 2.265625 -0.00390625 2.078125 -0.015625 C 1.898438 -0.0234375 1.769531 -0.0390625 1.6875 -0.0625 C 1.53125 -0.101562 1.40625 -0.171875 1.3125 -0.265625 C 1.257812 -0.347656 1.203125 -0.484375 1.140625 -0.671875 C 1.128906 -0.742188 1.109375 -0.851562 1.078125 -1 C 1.054688 -1.15625 1.03125 -1.34375 1 -1.5625 L 0.71875 -3.484375 Z M 0.4375 -5.5 "/></g></g></g><g fill="#ff2851" fill-opacity="1"><g transform="translate(195.66181, 285.213812)"><g><path d="M 2.765625 -7.75 L 2.515625 -5.90625 L 0.9375 -5.90625 L 0.96875 -6.203125 C 1.007812 -6.421875 1.039062 -6.597656 1.0625 -6.734375 C 1.082031 -6.878906 1.101562 -6.984375 1.125 -7.046875 C 1.175781 -7.285156 1.25 -7.453125 1.34375 -7.546875 C 1.4375 -7.640625 1.570312 -7.695312 1.75 -7.71875 C 1.90625 -7.738281 2.242188 -7.75 2.765625 -7.75 Z M 0.890625 -5.5 L 2.453125 -5.5 L 2.140625 -3.25 L 1.90625 -1.546875 C 1.84375 -1.160156 1.796875 -0.898438 1.765625 -0.765625 C 1.742188 -0.578125 1.695312 -0.429688 1.625 -0.328125 C 1.53125 -0.191406 1.378906 -0.101562 1.171875 -0.0625 C 1.097656 -0.0390625 0.972656 -0.0234375 0.796875 -0.015625 C 0.617188 -0.00390625 0.390625 0 0.109375 0 L 0.515625 -2.8125 Z M 0.890625 -5.5 "/></g></g></g><g fill="#ff2851" fill-opacity="1"><g transform="translate(198.211171, 285.213812)"><g><path d="M 2.375 -5.5 L 4.78125 -5.5 C 4.976562 -5.5 5.144531 -5.5 5.28125 -5.5 C 5.414062 -5.5 5.515625 -5.492188 5.578125 -5.484375 C 5.828125 -5.460938 5.992188 -5.414062 6.078125 -5.34375 C 6.179688 -5.269531 6.234375 -5.117188 6.234375 -4.890625 C 6.234375 -4.867188 6.234375 -4.835938 6.234375 -4.796875 C 6.234375 -4.753906 6.226562 -4.707031 6.21875 -4.65625 C 6.21875 -4.59375 6.207031 -4.5 6.1875 -4.375 C 6.175781 -4.257812 6.160156 -4.113281 6.140625 -3.9375 L 6.078125 -3.515625 C 6.046875 -3.296875 6.015625 -3.113281 5.984375 -2.96875 C 5.960938 -2.832031 5.941406 -2.722656 5.921875 -2.640625 C 5.878906 -2.441406 5.8125 -2.289062 5.71875 -2.1875 C 5.601562 -2.082031 5.441406 -2.019531 5.234375 -2 C 5.097656 -1.976562 4.832031 -1.96875 4.4375 -1.96875 L 2.109375 -1.96875 C 2.023438 -1.96875 1.972656 -1.960938 1.953125 -1.953125 C 1.910156 -1.953125 1.878906 -1.941406 1.859375 -1.921875 C 1.847656 -1.910156 1.832031 -1.867188 1.8125 -1.796875 C 1.8125 -1.765625 1.800781 -1.6875 1.78125 -1.5625 L 4.21875 -1.5625 C 4.65625 -1.5625 4.929688 -1.550781 5.046875 -1.53125 C 5.222656 -1.507812 5.347656 -1.453125 5.421875 -1.359375 C 5.503906 -1.273438 5.550781 -1.113281 5.5625 -0.875 C 5.570312 -0.8125 5.578125 -0.722656 5.578125 -0.609375 C 5.578125 -0.492188 5.578125 -0.351562 5.578125 -0.1875 L 5.578125 -0.015625 L 1.390625 -0.015625 C 1.171875 -0.015625 0.988281 -0.0195312 0.84375 -0.03125 C 0.695312 -0.0390625 0.585938 -0.0507812 0.515625 -0.0625 C 0.359375 -0.101562 0.242188 -0.171875 0.171875 -0.265625 C 0.128906 -0.347656 0.109375 -0.460938 0.109375 -0.609375 L 0.109375 -0.6875 C 0.117188 -0.820312 0.148438 -1.117188 0.203125 -1.578125 L 0.546875 -3.9375 C 0.578125 -4.144531 0.601562 -4.3125 0.625 -4.4375 C 0.65625 -4.5625 0.671875 -4.660156 0.671875 -4.734375 C 0.734375 -5.003906 0.8125 -5.179688 0.90625 -5.265625 C 1.019531 -5.367188 1.175781 -5.4375 1.375 -5.46875 C 1.53125 -5.488281 1.863281 -5.5 2.375 -5.5 Z M 2.390625 -3.9375 C 2.285156 -3.9375 2.222656 -3.929688 2.203125 -3.921875 C 2.191406 -3.921875 2.171875 -3.90625 2.140625 -3.875 C 2.128906 -3.863281 2.117188 -3.847656 2.109375 -3.828125 C 2.109375 -3.816406 2.101562 -3.800781 2.09375 -3.78125 C 2.09375 -3.75 2.082031 -3.664062 2.0625 -3.53125 L 4.359375 -3.53125 C 4.410156 -3.539062 4.453125 -3.5625 4.484375 -3.59375 C 4.503906 -3.613281 4.515625 -3.640625 4.515625 -3.671875 C 4.523438 -3.722656 4.535156 -3.8125 4.546875 -3.9375 Z M 2.390625 -3.9375 "/></g></g></g><g fill="#ff2851" fill-opacity="1"><g transform="translate(204.551308, 285.213812)"><g><path d="M 0.765625 -5.5 C 1.003906 -5.5 1.195312 -5.5 1.34375 -5.5 C 1.5 -5.5 1.613281 -5.488281 1.6875 -5.46875 C 1.894531 -5.445312 2.035156 -5.394531 2.109375 -5.3125 C 2.191406 -5.238281 2.234375 -5.097656 2.234375 -4.890625 C 2.234375 -4.867188 2.234375 -4.832031 2.234375 -4.78125 C 2.234375 -4.738281 2.222656 -4.6875 2.203125 -4.625 C 2.203125 -4.570312 2.191406 -4.488281 2.171875 -4.375 C 2.160156 -4.257812 2.140625 -4.113281 2.109375 -3.9375 L 1.84375 -1.953125 C 1.832031 -1.910156 1.820312 -1.867188 1.8125 -1.828125 C 1.8125 -1.785156 1.8125 -1.753906 1.8125 -1.734375 C 1.8125 -1.691406 1.820312 -1.65625 1.84375 -1.625 C 1.875 -1.59375 1.898438 -1.578125 1.921875 -1.578125 C 1.941406 -1.578125 1.976562 -1.570312 2.03125 -1.5625 C 2.082031 -1.5625 2.144531 -1.5625 2.21875 -1.5625 L 2.5 -3.671875 L 2.765625 -5.5 C 3.253906 -5.5 3.570312 -5.488281 3.71875 -5.46875 C 3.9375 -5.4375 4.078125 -5.359375 4.140625 -5.234375 C 4.179688 -5.140625 4.203125 -5.015625 4.203125 -4.859375 C 4.203125 -4.835938 4.203125 -4.8125 4.203125 -4.78125 C 4.203125 -4.757812 4.203125 -4.734375 4.203125 -4.703125 C 4.203125 -4.628906 4.191406 -4.53125 4.171875 -4.40625 C 4.160156 -4.289062 4.144531 -4.132812 4.125 -3.9375 L 3.84375 -1.96875 C 3.832031 -1.914062 3.828125 -1.875 3.828125 -1.84375 C 3.828125 -1.8125 3.828125 -1.785156 3.828125 -1.765625 C 3.828125 -1.691406 3.828125 -1.648438 3.828125 -1.640625 C 3.847656 -1.609375 3.882812 -1.585938 3.9375 -1.578125 C 3.957031 -1.578125 3.988281 -1.570312 4.03125 -1.5625 C 4.082031 -1.5625 4.144531 -1.5625 4.21875 -1.5625 L 4.546875 -3.796875 L 4.78125 -5.5 C 5.28125 -5.5 5.597656 -5.488281 5.734375 -5.46875 C 5.941406 -5.4375 6.078125 -5.367188 6.140625 -5.265625 C 6.203125 -5.203125 6.234375 -5.078125 6.234375 -4.890625 L 6.234375 -4.828125 C 6.234375 -4.691406 6.203125 -4.394531 6.140625 -3.9375 L 5.8125 -1.5625 C 5.78125 -1.34375 5.75 -1.160156 5.71875 -1.015625 C 5.695312 -0.878906 5.675781 -0.773438 5.65625 -0.703125 C 5.613281 -0.515625 5.5625 -0.367188 5.5 -0.265625 C 5.394531 -0.140625 5.222656 -0.0625 4.984375 -0.03125 C 4.828125 -0.0078125 4.503906 0 4.015625 0 L 1.5625 0 C 1.3125 0 1.101562 -0.00390625 0.9375 -0.015625 C 0.769531 -0.0234375 0.644531 -0.0351562 0.5625 -0.046875 C 0.363281 -0.078125 0.234375 -0.148438 0.171875 -0.265625 C 0.128906 -0.359375 0.109375 -0.472656 0.109375 -0.609375 L 0.109375 -0.671875 C 0.128906 -0.816406 0.160156 -1.113281 0.203125 -1.5625 L 0.546875 -3.9375 Z M 0.765625 -5.5 "/></g></g></g><g fill="#ff2851" fill-opacity="1"><g transform="translate(210.891446, 285.213812)"><g/></g></g><g fill="#ff2851" fill-opacity="1"><g transform="translate(214.216695, 285.213812)"><g><path d="M 0.53125 -3.921875 C 0.570312 -4.140625 0.601562 -4.320312 0.625 -4.46875 C 0.65625 -4.613281 0.671875 -4.71875 0.671875 -4.78125 C 0.742188 -5.019531 0.820312 -5.179688 0.90625 -5.265625 C 1.019531 -5.367188 1.191406 -5.4375 1.421875 -5.46875 C 1.503906 -5.476562 1.617188 -5.484375 1.765625 -5.484375 C 1.921875 -5.484375 2.109375 -5.484375 2.328125 -5.484375 L 4.765625 -5.484375 C 4.953125 -5.484375 5.109375 -5.484375 5.234375 -5.484375 C 5.367188 -5.484375 5.46875 -5.476562 5.53125 -5.46875 C 5.582031 -5.46875 5.632812 -5.460938 5.6875 -5.453125 C 5.738281 -5.441406 5.78125 -5.429688 5.8125 -5.421875 C 5.925781 -5.398438 6 -5.363281 6.03125 -5.3125 C 6.125 -5.238281 6.175781 -5.125 6.1875 -4.96875 L 6.1875 -4.515625 C 6.1875 -4.460938 6.175781 -4.382812 6.15625 -4.28125 C 6.144531 -4.1875 6.132812 -4.066406 6.125 -3.921875 L 5.921875 -2.53125 L 5.796875 -1.546875 L 5.578125 0 L 5.46875 0.71875 C 5.445312 0.914062 5.425781 1.078125 5.40625 1.203125 C 5.382812 1.335938 5.363281 1.445312 5.34375 1.53125 C 5.300781 1.75 5.226562 1.914062 5.125 2.03125 C 5.039062 2.132812 4.898438 2.203125 4.703125 2.234375 C 4.628906 2.242188 4.503906 2.253906 4.328125 2.265625 C 4.160156 2.273438 3.941406 2.28125 3.671875 2.28125 L -0.328125 2.28125 C -0.273438 2.039062 -0.226562 1.84375 -0.1875 1.6875 C -0.15625 1.539062 -0.128906 1.425781 -0.109375 1.34375 C -0.0234375 1.101562 0.078125 0.941406 0.203125 0.859375 C 0.296875 0.804688 0.441406 0.769531 0.640625 0.75 C 0.710938 0.726562 0.8125 0.71875 0.9375 0.71875 C 1.0625 0.71875 1.203125 0.71875 1.359375 0.71875 L 3.28125 0.71875 C 3.382812 0.71875 3.46875 0.710938 3.53125 0.703125 C 3.601562 0.703125 3.648438 0.703125 3.671875 0.703125 C 3.753906 0.679688 3.8125 0.65625 3.84375 0.625 C 3.882812 0.59375 3.914062 0.53125 3.9375 0.4375 C 3.957031 0.363281 3.976562 0.21875 4 0 L 1.453125 0 C 1.242188 0 1.066406 0 0.921875 0 C 0.785156 -0.0078125 0.675781 -0.015625 0.59375 -0.015625 C 0.375 -0.0664062 0.234375 -0.148438 0.171875 -0.265625 C 0.117188 -0.347656 0.09375 -0.457031 0.09375 -0.59375 C 0.09375 -0.632812 0.09375 -0.671875 0.09375 -0.703125 C 0.101562 -0.742188 0.109375 -0.78125 0.109375 -0.8125 C 0.128906 -0.882812 0.144531 -0.976562 0.15625 -1.09375 C 0.164062 -1.21875 0.179688 -1.367188 0.203125 -1.546875 C 0.210938 -1.617188 0.222656 -1.707031 0.234375 -1.8125 C 0.253906 -1.914062 0.269531 -2.035156 0.28125 -2.171875 C 0.3125 -2.304688 0.332031 -2.425781 0.34375 -2.53125 C 0.351562 -2.632812 0.363281 -2.71875 0.375 -2.78125 C 0.4375 -3.15625 0.476562 -3.4375 0.5 -3.625 C 0.519531 -3.8125 0.53125 -3.910156 0.53125 -3.921875 Z M 2.5 -3.921875 C 2.363281 -3.921875 2.28125 -3.914062 2.25 -3.90625 C 2.195312 -3.90625 2.160156 -3.890625 2.140625 -3.859375 C 2.128906 -3.847656 2.109375 -3.800781 2.078125 -3.71875 C 2.078125 -3.6875 2.066406 -3.617188 2.046875 -3.515625 L 1.921875 -2.5625 L 1.78125 -1.546875 L 3.796875 -1.546875 C 3.859375 -1.546875 3.910156 -1.546875 3.953125 -1.546875 C 3.992188 -1.554688 4.023438 -1.5625 4.046875 -1.5625 C 4.109375 -1.570312 4.148438 -1.585938 4.171875 -1.609375 C 4.191406 -1.617188 4.207031 -1.644531 4.21875 -1.6875 C 4.238281 -1.71875 4.25 -1.753906 4.25 -1.796875 C 4.257812 -1.835938 4.269531 -1.890625 4.28125 -1.953125 L 4.546875 -3.921875 Z M 2.5 -3.921875 "/></g></g></g><g fill="#ff2851" fill-opacity="1"><g transform="translate(220.5125, 285.213812)"><g><path d="M 5.046875 -5.5 C 5.367188 -5.5 5.597656 -5.488281 5.734375 -5.46875 C 5.898438 -5.4375 6.015625 -5.394531 6.078125 -5.34375 C 6.179688 -5.269531 6.234375 -5.117188 6.234375 -4.890625 C 6.234375 -4.867188 6.234375 -4.84375 6.234375 -4.8125 C 6.234375 -4.789062 6.226562 -4.765625 6.21875 -4.734375 C 6.21875 -4.660156 6.210938 -4.554688 6.203125 -4.421875 C 6.191406 -4.296875 6.171875 -4.132812 6.140625 -3.9375 L 5.953125 -2.6875 L 5.8125 -1.5625 C 5.78125 -1.289062 5.742188 -1.070312 5.703125 -0.90625 C 5.671875 -0.75 5.640625 -0.628906 5.609375 -0.546875 C 5.566406 -0.390625 5.492188 -0.269531 5.390625 -0.1875 C 5.304688 -0.125 5.1875 -0.078125 5.03125 -0.046875 C 4.957031 -0.0351562 4.832031 -0.0234375 4.65625 -0.015625 C 4.476562 -0.00390625 4.25 0 3.96875 0 L 1.5625 0 C 1.289062 0 1.070312 -0.00390625 0.90625 -0.015625 C 0.738281 -0.0234375 0.613281 -0.0351562 0.53125 -0.046875 C 0.375 -0.078125 0.265625 -0.128906 0.203125 -0.203125 C 0.140625 -0.285156 0.109375 -0.414062 0.109375 -0.59375 L 0.109375 -0.671875 C 0.128906 -0.816406 0.160156 -1.113281 0.203125 -1.5625 L 0.28125 -1.96875 C 0.3125 -2.164062 0.335938 -2.332031 0.359375 -2.46875 C 0.378906 -2.601562 0.394531 -2.703125 0.40625 -2.765625 C 0.445312 -3.023438 0.519531 -3.203125 0.625 -3.296875 C 0.726562 -3.398438 0.867188 -3.460938 1.046875 -3.484375 C 1.203125 -3.503906 1.488281 -3.515625 1.90625 -3.515625 L 4.21875 -3.515625 C 4.257812 -3.515625 4.296875 -3.515625 4.328125 -3.515625 C 4.367188 -3.523438 4.390625 -3.53125 4.390625 -3.53125 C 4.429688 -3.539062 4.46875 -3.5625 4.5 -3.59375 C 4.519531 -3.613281 4.53125 -3.644531 4.53125 -3.6875 C 4.539062 -3.726562 4.550781 -3.8125 4.5625 -3.9375 L 2.125 -3.9375 C 1.925781 -3.9375 1.757812 -3.9375 1.625 -3.9375 C 1.488281 -3.9375 1.382812 -3.941406 1.3125 -3.953125 C 1.125 -3.984375 0.988281 -4.050781 0.90625 -4.15625 C 0.84375 -4.257812 0.800781 -4.425781 0.78125 -4.65625 C 0.78125 -4.726562 0.773438 -4.816406 0.765625 -4.921875 C 0.765625 -5.035156 0.765625 -5.164062 0.765625 -5.3125 L 0.765625 -5.5 Z M 2.109375 -1.96875 C 2.003906 -1.96875 1.945312 -1.960938 1.9375 -1.953125 C 1.914062 -1.953125 1.890625 -1.941406 1.859375 -1.921875 C 1.847656 -1.898438 1.832031 -1.84375 1.8125 -1.75 C 1.8125 -1.707031 1.800781 -1.644531 1.78125 -1.5625 L 3.953125 -1.5625 C 3.992188 -1.5625 4.03125 -1.5625 4.0625 -1.5625 C 4.101562 -1.570312 4.125 -1.578125 4.125 -1.578125 C 4.175781 -1.578125 4.203125 -1.59375 4.203125 -1.625 C 4.222656 -1.632812 4.238281 -1.671875 4.25 -1.734375 C 4.269531 -1.773438 4.28125 -1.851562 4.28125 -1.96875 Z M 2.109375 -1.96875 "/></g></g></g><g fill="#ff2851" fill-opacity="1"><g transform="translate(226.852644, 285.213812)"><g><path d="M 0.671875 -3.9375 C 0.703125 -4.1875 0.726562 -4.390625 0.75 -4.546875 C 0.769531 -4.710938 0.789062 -4.832031 0.8125 -4.90625 C 0.882812 -5.125 0.972656 -5.269531 1.078125 -5.34375 C 1.179688 -5.414062 1.335938 -5.460938 1.546875 -5.484375 C 1.609375 -5.492188 1.6875 -5.5 1.78125 -5.5 C 1.875 -5.5 1.984375 -5.5 2.109375 -5.5 L 5.234375 -5.5 C 5.378906 -5.5 5.5 -5.5 5.59375 -5.5 C 5.695312 -5.5 5.78125 -5.488281 5.84375 -5.46875 C 6.050781 -5.445312 6.191406 -5.378906 6.265625 -5.265625 C 6.316406 -5.191406 6.34375 -5.066406 6.34375 -4.890625 C 6.34375 -4.867188 6.34375 -4.84375 6.34375 -4.8125 C 6.34375 -4.789062 6.34375 -4.765625 6.34375 -4.734375 C 6.34375 -4.671875 6.332031 -4.570312 6.3125 -4.4375 C 6.300781 -4.3125 6.28125 -4.144531 6.25 -3.9375 L 6.1875 -3.53125 L 5.96875 -1.96875 L 5.921875 -1.5625 C 5.890625 -1.375 5.863281 -1.210938 5.84375 -1.078125 C 5.820312 -0.953125 5.804688 -0.859375 5.796875 -0.796875 C 5.753906 -0.554688 5.6875 -0.382812 5.59375 -0.28125 C 5.507812 -0.15625 5.34375 -0.078125 5.09375 -0.046875 C 4.9375 -0.0234375 4.613281 -0.015625 4.125 -0.015625 L 4.34375 -1.5625 L 4.390625 -1.96875 L 4.625 -3.53125 L 4.671875 -3.9375 C 4.597656 -3.9375 4.535156 -3.9375 4.484375 -3.9375 C 4.429688 -3.9375 4.390625 -3.9375 4.359375 -3.9375 C 4.328125 -3.9375 4.289062 -3.914062 4.25 -3.875 C 4.25 -3.863281 4.234375 -3.820312 4.203125 -3.75 C 4.203125 -3.71875 4.191406 -3.644531 4.171875 -3.53125 L 3.9375 -1.96875 L 3.890625 -1.5625 C 3.859375 -1.34375 3.832031 -1.160156 3.8125 -1.015625 C 3.789062 -0.878906 3.769531 -0.769531 3.75 -0.6875 C 3.695312 -0.488281 3.628906 -0.34375 3.546875 -0.25 C 3.453125 -0.164062 3.316406 -0.101562 3.140625 -0.0625 C 3.066406 -0.0507812 2.941406 -0.0390625 2.765625 -0.03125 C 2.597656 -0.0195312 2.375 -0.015625 2.09375 -0.015625 L 2.3125 -1.5625 L 2.375 -1.96875 L 2.59375 -3.53125 L 2.640625 -3.9375 C 2.515625 -3.9375 2.4375 -3.9375 2.40625 -3.9375 C 2.351562 -3.9375 2.316406 -3.925781 2.296875 -3.90625 C 2.285156 -3.894531 2.269531 -3.878906 2.25 -3.859375 C 2.238281 -3.835938 2.226562 -3.8125 2.21875 -3.78125 C 2.21875 -3.75 2.207031 -3.664062 2.1875 -3.53125 L 1.953125 -1.96875 L 1.90625 -1.5625 C 1.84375 -1.09375 1.785156 -0.78125 1.734375 -0.625 C 1.679688 -0.414062 1.59375 -0.265625 1.46875 -0.171875 C 1.375 -0.0976562 1.226562 -0.0507812 1.03125 -0.03125 C 0.957031 -0.0195312 0.84375 -0.015625 0.6875 -0.015625 C 0.539062 -0.015625 0.347656 -0.015625 0.109375 -0.015625 L 0.328125 -1.5625 L 0.390625 -1.96875 L 0.609375 -3.53125 Z M 0.671875 -3.9375 "/></g></g></g><g fill="#ff2851" fill-opacity="1"><g transform="translate(233.303629, 285.213812)"><g><path d="M 2.375 -5.5 L 4.78125 -5.5 C 4.976562 -5.5 5.144531 -5.5 5.28125 -5.5 C 5.414062 -5.5 5.515625 -5.492188 5.578125 -5.484375 C 5.828125 -5.460938 5.992188 -5.414062 6.078125 -5.34375 C 6.179688 -5.269531 6.234375 -5.117188 6.234375 -4.890625 C 6.234375 -4.867188 6.234375 -4.835938 6.234375 -4.796875 C 6.234375 -4.753906 6.226562 -4.707031 6.21875 -4.65625 C 6.21875 -4.59375 6.207031 -4.5 6.1875 -4.375 C 6.175781 -4.257812 6.160156 -4.113281 6.140625 -3.9375 L 6.078125 -3.515625 C 6.046875 -3.296875 6.015625 -3.113281 5.984375 -2.96875 C 5.960938 -2.832031 5.941406 -2.722656 5.921875 -2.640625 C 5.878906 -2.441406 5.8125 -2.289062 5.71875 -2.1875 C 5.601562 -2.082031 5.441406 -2.019531 5.234375 -2 C 5.097656 -1.976562 4.832031 -1.96875 4.4375 -1.96875 L 2.109375 -1.96875 C 2.023438 -1.96875 1.972656 -1.960938 1.953125 -1.953125 C 1.910156 -1.953125 1.878906 -1.941406 1.859375 -1.921875 C 1.847656 -1.910156 1.832031 -1.867188 1.8125 -1.796875 C 1.8125 -1.765625 1.800781 -1.6875 1.78125 -1.5625 L 4.21875 -1.5625 C 4.65625 -1.5625 4.929688 -1.550781 5.046875 -1.53125 C 5.222656 -1.507812 5.347656 -1.453125 5.421875 -1.359375 C 5.503906 -1.273438 5.550781 -1.113281 5.5625 -0.875 C 5.570312 -0.8125 5.578125 -0.722656 5.578125 -0.609375 C 5.578125 -0.492188 5.578125 -0.351562 5.578125 -0.1875 L 5.578125 -0.015625 L 1.390625 -0.015625 C 1.171875 -0.015625 0.988281 -0.0195312 0.84375 -0.03125 C 0.695312 -0.0390625 0.585938 -0.0507812 0.515625 -0.0625 C 0.359375 -0.101562 0.242188 -0.171875 0.171875 -0.265625 C 0.128906 -0.347656 0.109375 -0.460938 0.109375 -0.609375 L 0.109375 -0.6875 C 0.117188 -0.820312 0.148438 -1.117188 0.203125 -1.578125 L 0.546875 -3.9375 C 0.578125 -4.144531 0.601562 -4.3125 0.625 -4.4375 C 0.65625 -4.5625 0.671875 -4.660156 0.671875 -4.734375 C 0.734375 -5.003906 0.8125 -5.179688 0.90625 -5.265625 C 1.019531 -5.367188 1.175781 -5.4375 1.375 -5.46875 C 1.53125 -5.488281 1.863281 -5.5 2.375 -5.5 Z M 2.390625 -3.9375 C 2.285156 -3.9375 2.222656 -3.929688 2.203125 -3.921875 C 2.191406 -3.921875 2.171875 -3.90625 2.140625 -3.875 C 2.128906 -3.863281 2.117188 -3.847656 2.109375 -3.828125 C 2.109375 -3.816406 2.101562 -3.800781 2.09375 -3.78125 C 2.09375 -3.75 2.082031 -3.664062 2.0625 -3.53125 L 4.359375 -3.53125 C 4.410156 -3.539062 4.453125 -3.5625 4.484375 -3.59375 C 4.503906 -3.613281 4.515625 -3.640625 4.515625 -3.671875 C 4.523438 -3.722656 4.535156 -3.8125 4.546875 -3.9375 Z M 2.390625 -3.9375 "/></g></g></g></svg>